              <svg
                class="m-auto"
                width="20"
                height="20"
                viewBox="0 0 42 42"
                fill="none"
                xmlns="http://www.w3.org/2000/svg"
              >
                <g clip-path="url(#clip0_69_446)">
                  <path
                    fill-rule="evenodd"
                    clip-rule="evenodd"
                    d="M11 9C11 8.07174 11.3687 7.1815 12.0251 6.52513C12.6815 5.86875 13.5717 5.5 14.5 5.5H35.5C36.4283 5.5 37.3185 5.86875 37.9749 6.52513C38.6313 7.1815 39 8.07174 39 9V19.5H35.5V9H14.5V37H23.25V40.5H14.5C13.5717 40.5 12.6815 40.1313 12.0251 39.4749C11.3687 38.8185 11 37.9283 11 37V9ZM18 16C18 15.5359 18.1844 15.0908 18.5126 14.7626C18.8408 14.4344 19.2859 14.25 19.75 14.25H30.25C30.7141 14.25 31.1592 14.4344 31.4874 14.7626C31.8156 15.0908 32 15.5359 32 16C32 16.4641 31.8156 16.9092 31.4874 17.2374C31.1592 17.5656 30.7141 17.75 30.25 17.75H19.75C19.2859 17.75 18.8408 17.5656 18.5126 17.2374C18.1844 16.9092 18 16.4641 18 16ZM18 23C18 22.5359 18.1844 22.0908 18.5126 21.7626C18.8408 21.4344 19.2859 21.25 19.75 21.25H21.5C21.9641 21.25 22.4092 21.4344 22.7374 21.7626C23.0656 22.0908 23.25 22.5359 23.25 23C23.25 23.4641 23.0656 23.9092 22.7374 24.2374C22.4092 24.5656 21.9641 24.75 21.5 24.75H19.75C19.2859 24.75 18.8408 24.5656 18.5126 24.2374C18.1844 23.9092 18 23.4641 18 23ZM33.75 26.5C32.3576 26.5 31.0223 27.0531 30.0377 28.0377C29.0531 29.0223 28.5 30.3576 28.5 31.75C28.5 33.1424 29.0531 34.4777 30.0377 35.4623C31.0223 36.4469 32.3576 37 33.75 37C35.1424 37 36.4777 36.4469 37.4623 35.4623C38.4469 34.4777 39 33.1424 39 31.75C39 30.3576 38.4469 29.0223 37.4623 28.0377C36.4777 27.0531 35.1424 26.5 33.75 26.5ZM25 31.75C25 29.4294 25.9219 27.2038 27.5628 25.5628C29.2038 23.9219 31.4294 23 33.75 23C36.0706 23 38.2962 23.9219 39.9372 25.5628C41.5781 27.2038 42.5 29.4294 42.5 31.75C42.5 34.0706 41.5781 36.2962 39.9372 37.9372C38.2962 39.5781 36.0706 40.5 33.75 40.5C31.4294 40.5 29.2038 39.5781 27.5628 37.9372C25.9219 36.2962 25 34.0706 25 31.75ZM33.75 27.375C34.2141 27.375 34.6592 27.5594 34.9874 27.8876C35.3156 28.2158 35.5 28.6609 35.5 29.125V30C35.9641 30 36.4092 30.1844 36.7374 30.5126C37.0656 30.8408 37.25 31.2859 37.25 31.75C37.25 32.2141 37.0656 32.6592 36.7374 32.9874C36.4092 33.3156 35.9641 33.5 35.5 33.5H33.75C33.2859 33.5 32.8408 33.3156 32.5126 32.9874C32.1844 32.6592 32 32.2141 32 31.75V29.125C32 28.6609 32.1844 28.2158 32.5126 27.8876C32.8408 27.5594 33.2859 27.375 33.75 27.375Z"
                    fill="black"
                  />
                </g>
                <defs>
                  <clipPath id="clip0_69_446">
                    <rect width="42" height="42" fill="white" />
                  </clipPath>
                </defs>
              </svg>