<svg width="820" height="625" viewBox="0 0 820 625" fill="none" xmlns="http://www.w3.org/2000/svg">
<path d="M515.505 129.668C543.577 150.206 561.651 175.837 574.267 207.469C575.124 209.585 575.982 211.701 576.865 213.881C589.999 252.257 584.348 296.248 567.089 332.274C543.919 374.719 508.425 401.889 462.085 417.369C417.076 427.743 369.982 421.073 330.214 398.76C317.764 390.659 307.067 381.11 296.482 370.851C294.747 369.196 293.011 367.541 291.223 365.836C262.539 336.459 249.974 295.237 250.678 255.375C253.4 211.364 272.504 170.735 305.674 140.376C367.483 90.4423 448.121 87.1165 515.505 129.668Z" fill="#303030"/>
<path d="M427.529 146.687C430.622 146.702 433.716 146.717 436.903 146.733C470.806 147.205 470.806 147.205 485.456 158.843C500.282 176.437 497.228 196.231 496.808 217.842C483.586 217.842 470.365 217.842 456.743 217.842C454.98 210.14 453.217 202.438 451.401 194.502C437.298 194.502 423.195 194.502 408.665 194.502C406.259 203.843 405.558 210.915 405.994 220.436C409.218 224.146 409.218 224.146 418.681 223.515C427.992 223.434 434.96 221.934 443.388 217.842C442.066 221.693 442.066 221.693 440.717 225.622C444.242 223.911 447.768 222.199 451.401 220.436C451.401 222.147 451.401 223.859 451.401 225.622C459.215 226.202 459.215 226.202 464.756 223.029C467.4 223.885 470.044 224.741 472.769 225.622C472.769 227.334 472.769 229.046 472.769 230.809C475.633 232.039 478.498 233.27 481.45 234.537C491.444 240.324 496.217 245.976 500.387 256.51C505.584 280.128 507.395 311.227 494.857 332.821C485.83 344.309 477.053 350.595 462.085 352.697C450.128 353.393 438.169 353.415 426.193 353.507C422.948 353.583 419.703 353.658 416.359 353.735C386.302 353.943 386.302 353.943 373.941 342.324C359.181 324.226 358.974 304.869 360.586 282.676C358.824 281.82 357.061 280.965 355.244 280.083C362.296 274.948 369.347 269.813 376.612 264.523C376.612 267.09 376.612 269.658 376.612 272.303C379.257 272.303 381.901 272.303 384.625 272.303C393.088 272.303 395.993 273.931 403.323 277.49C405.967 277.49 408.611 277.49 411.336 277.49C407.81 279.201 404.284 280.913 400.652 282.676C401.922 286.515 403.204 290.351 404.491 294.184C405.204 296.321 405.917 298.457 406.651 300.658C408.188 305.919 408.188 305.919 411.336 308.61C417.998 309.007 424.535 309.21 431.201 309.258C433.055 309.312 434.909 309.365 436.82 309.42C442.853 309.555 442.853 309.555 451.401 308.61C457.044 300.39 457.417 298.246 457.244 288.836C457.218 285.737 457.218 285.737 457.191 282.575C457.309 277.482 457.309 277.482 454.072 274.896C450.159 274.432 446.226 274.119 442.292 273.873C439.867 273.694 437.441 273.515 434.942 273.331C429.852 272.975 424.76 272.643 419.667 272.338C403.751 271.111 389.707 268.75 376.612 259.336C371.943 253.453 369.182 248.006 365.928 241.183C365.047 239.471 364.166 237.759 363.257 235.996C362.472 227.261 362.515 218.502 362.423 209.738C362.345 207.338 362.268 204.937 362.188 202.464C362.013 183.984 365.037 170.847 377.584 156.674C391.991 144.324 409.323 146.184 427.529 146.687Z" fill="#F2F2F2"/>
<path d="M352.573 306.017C363.156 314.388 367.477 324.366 372.762 336.256C377.575 343.84 381.781 346.145 389.967 350.104C397.601 351.352 397.601 351.352 405.691 351.34C408.636 351.42 411.582 351.5 414.617 351.583C417.666 351.63 420.715 351.676 423.856 351.725C429.932 351.856 436.008 351.998 442.083 352.15C444.768 352.196 447.452 352.241 450.218 352.288C456.743 352.697 456.743 352.697 462.085 355.29C462.085 357.002 462.085 358.714 462.085 360.477C457.995 363.82 457.995 363.82 452.736 367.285C451.001 368.441 449.266 369.598 447.478 370.79C446.128 371.666 444.778 372.542 443.388 373.444C441.625 372.588 439.862 371.732 438.046 370.851C436.338 371.706 434.63 372.562 432.871 373.444C427.362 376.037 427.362 376.037 419.349 373.444C412.347 373.444 407.304 374.256 400.651 376.037C401.533 373.47 402.414 370.902 403.322 368.257C399.797 370.825 396.271 373.392 392.638 376.037C390.876 375.182 389.113 374.326 387.296 373.444C381.692 374.48 381.692 374.48 376.612 376.037C376.612 374.326 376.612 372.614 376.612 370.851C373.968 370.851 371.324 370.851 368.599 370.851C365.955 370.851 363.311 370.851 360.586 370.851C361.468 368.283 362.349 365.716 363.257 363.071C357.969 365.638 357.969 365.638 352.573 368.257C352.573 366.546 352.573 364.834 352.573 363.071C350.81 362.215 349.048 361.359 347.231 360.477C346.35 359.621 345.468 358.766 344.56 357.884C344.56 356.172 344.56 354.461 344.56 352.697C342.797 352.697 341.035 352.697 339.218 352.697C337.716 347.672 337.716 347.672 336.547 342.324C337.429 341.468 338.31 340.612 339.218 339.73C339.218 337.163 339.218 334.595 339.218 331.95C340.1 331.094 340.981 330.239 341.889 329.357C340.126 328.501 338.364 327.645 336.547 326.763C335.666 325.908 334.784 325.052 333.876 324.17C333.876 322.459 333.876 320.747 333.876 318.983C337.966 315.64 337.966 315.64 343.225 312.176C344.96 311.019 346.695 309.862 348.483 308.671C349.833 307.795 351.183 306.919 352.573 306.017Z" fill="#898989"/>
<path d="M365.928 171.162C366.81 172.873 367.691 174.585 368.599 176.349C367.718 178.06 366.836 179.772 365.928 181.535C365.673 185.548 365.579 189.57 365.574 193.59C365.57 195.984 365.567 198.378 365.563 200.844C365.573 203.351 365.584 205.858 365.594 208.441C365.584 210.929 365.574 213.416 365.563 215.978C365.568 219.579 365.568 219.579 365.574 223.252C365.577 225.446 365.58 227.64 365.583 229.901C365.913 235.732 366.926 240.775 368.599 246.369C366.836 247.225 365.074 248.081 363.257 248.963C362.486 250.621 361.715 252.279 360.92 253.987C357.303 260.425 354.118 261.848 347.231 264.523C346.35 262.811 345.468 261.1 344.56 259.336C341.916 260.62 341.916 260.62 339.218 261.93C341.889 254.149 341.889 254.149 344.56 251.556C342.797 250.7 341.035 249.844 339.218 248.963C338.337 248.107 337.455 247.251 336.547 246.369C336.547 241.183 336.547 241.183 339.218 238.589C337.455 237.733 335.693 236.878 333.876 235.996C333.876 232.573 333.876 229.149 333.876 225.622C335.639 224.767 337.402 223.911 339.218 223.029C339.218 220.462 339.218 217.894 339.218 215.249C338.337 214.393 337.455 213.537 336.547 212.656C336.547 207.469 336.547 207.469 341.889 202.282C341.008 200.571 340.126 198.859 339.218 197.095C341.863 195.384 344.507 193.672 347.231 191.909C347.231 189.341 347.231 186.774 347.231 184.129C351.321 180.532 351.321 180.532 356.58 177.159C359.183 175.459 359.183 175.459 361.838 173.725C363.863 172.456 363.863 172.456 365.928 171.162Z" fill="#585857"/>
<path d="M365.928 331.95C367.216 333.043 368.504 334.137 369.831 335.263C371.518 336.684 373.205 338.104 374.943 339.568C376.616 340.982 378.29 342.396 380.014 343.853C388.37 350.48 394.285 350.528 404.908 350.833C409.366 350.979 409.366 350.979 413.913 351.127C418.587 351.262 418.587 351.262 423.355 351.4C429.504 351.579 435.653 351.767 441.802 351.968C444.537 352.046 447.273 352.125 450.091 352.206C456.743 352.697 456.743 352.697 462.085 355.29C462.085 357.002 462.085 358.714 462.085 360.477C457.995 363.82 457.995 363.82 452.736 367.285C450.133 369.02 450.133 369.02 447.478 370.79C446.128 371.666 444.778 372.542 443.388 373.444C441.625 372.588 439.862 371.732 438.046 370.851C436.338 371.706 434.63 372.562 432.871 373.444C427.362 376.037 427.362 376.037 419.349 373.444C412.348 373.444 407.304 374.255 400.652 376.037C401.533 373.47 402.414 370.902 403.323 368.257C399.797 370.825 396.271 373.392 392.639 376.037C390.876 375.182 389.113 374.326 387.297 373.444C390.822 369.165 394.348 364.886 397.981 360.477C396.218 360.477 394.455 360.477 392.639 360.477C392.639 358.766 392.639 357.054 392.639 355.29C389.994 356.146 387.35 357.002 384.626 357.884C384.626 356.172 384.626 354.461 384.626 352.697C381.981 353.553 379.337 354.409 376.612 355.29C373.968 353.579 371.324 351.867 368.599 350.104C365.955 349.248 363.311 348.392 360.586 347.51C362.349 342.376 364.112 337.241 365.928 331.95Z" fill="#7F7F7E"/>
<path d="M416.677 274.896C418.44 274.896 420.203 274.896 422.019 274.896C422.019 276.608 422.019 278.319 422.019 280.083C423.672 279.655 425.325 279.227 427.028 278.786C434.086 277.174 436.843 276.906 443.388 280.083C446.032 280.083 448.676 280.083 451.401 280.083C451.401 281.795 451.401 283.506 451.401 285.27C452.282 286.981 453.163 288.693 454.072 290.456C453.19 291.312 452.309 292.168 451.401 293.05C452.282 295.617 453.163 298.185 454.072 300.83C452.903 306.503 452.903 306.503 451.401 311.203C444.888 311.413 438.383 311.568 431.869 311.69C429.103 311.787 429.103 311.787 426.282 311.887C412.731 312.078 412.731 312.078 406.16 307.962C401.126 299.911 401.435 291.962 400.651 282.676C402.304 282.355 403.957 282.034 405.66 281.704C411.846 280.415 411.846 280.415 416.677 274.896Z" fill="#8B8B8B"/>
<path d="M592.964 443.465C597.247 443.254 601.532 443.103 605.818 442.978C609.398 442.843 609.398 442.843 613.049 442.705C619.674 443.465 619.674 443.465 624.48 446.787C629.943 454.38 628.836 463.074 628.689 471.992C628.72 473.87 628.751 475.749 628.783 477.685C628.739 485.374 628.636 491.257 624.39 497.885C618.332 501.268 614.277 501.387 607.321 501.167C604.129 501.107 604.129 501.107 600.873 501.045C595.635 500.519 595.635 500.519 592.964 497.925C592.732 493.875 592.678 489.815 592.703 485.759C592.712 483.31 592.721 480.861 592.729 478.338C592.752 475.763 592.774 473.187 592.797 470.533C592.809 467.947 592.821 465.361 592.834 462.697C592.865 456.286 592.909 449.876 592.964 443.465ZM603.648 453.838C603.648 465.82 603.648 477.801 603.648 490.145C608.055 489.289 612.463 488.434 617.003 487.552C617.003 477.282 617.003 467.012 617.003 456.432C612.596 455.576 608.189 454.72 603.648 453.838Z" fill="#4C4C4C"/>
<path d="M360.586 246.369C372.017 247.602 376.784 254.316 384.625 261.93C399.541 269.909 417.704 269.09 434.316 270.257C436.769 270.451 439.222 270.644 441.75 270.844C443.987 271.001 446.223 271.158 448.528 271.32C454.072 272.303 454.072 272.303 459.414 277.49C460.123 282.92 460.123 282.92 460.081 289.16C460.102 292.249 460.102 292.249 460.123 295.4C459.414 300.83 459.414 300.83 454.072 306.017C452.75 300.882 452.75 300.882 451.401 295.643C448.756 295.643 446.112 295.643 443.388 295.643C446.913 293.932 450.439 292.22 454.072 290.457C446.553 284.551 446.553 284.551 438.046 285.27C438.046 283.558 438.046 281.847 438.046 280.083C434.52 280.083 430.994 280.083 427.362 280.083C425.599 280.083 423.836 280.083 422.02 280.083C422.02 278.371 422.02 276.66 422.02 274.896C417.612 278.32 413.205 281.743 408.665 285.27C406.902 284.414 405.139 283.558 403.323 282.676C403.323 281.821 403.323 280.965 403.323 280.083C402.441 278.371 401.56 276.66 400.652 274.896C398.172 275.538 398.172 275.538 395.643 276.193C388.585 277.806 385.828 278.073 379.283 274.896C376.639 274.896 373.995 274.896 371.27 274.896C371.27 273.185 371.27 271.473 371.27 269.71C367.469 271.715 367.469 271.715 363.591 273.762C360.837 274.992 358.082 276.222 355.244 277.49C353.481 276.634 351.719 275.778 349.902 274.896C349.902 274.041 349.902 273.185 349.902 272.303C348.139 271.447 346.377 270.591 344.56 269.71C347.783 266.821 347.783 266.821 351.071 263.875C357.301 257.383 359.612 254.881 360.586 246.369Z" fill="#353535"/>
<path d="M547.557 443.465C555.49 443.465 563.423 443.465 571.596 443.465C579.609 451.245 579.609 451.245 580.277 461.456C580.075 467.138 579.65 471.848 578.107 477.34C576.26 485.283 578.196 492.592 579.609 500.519C574.601 500.194 574.601 500.194 568.925 497.925C567.045 492.772 565.263 487.584 563.583 482.365C560.939 481.509 558.295 480.654 555.57 479.772C555.57 486.618 555.57 493.465 555.57 500.519C552.926 500.519 550.282 500.519 547.557 500.519C547.557 481.691 547.557 462.863 547.557 443.465ZM558.241 453.838C554.779 456.604 554.779 456.604 555.403 463.077C555.458 465.163 555.513 467.249 555.57 469.398C559.977 468.543 564.384 467.687 568.925 466.805C568.044 462.526 567.162 458.247 566.254 453.838C563.61 453.838 560.966 453.838 558.241 453.838Z" fill="#3E3E3E"/>
<path d="M416.678 194.502C416.678 196.214 416.678 197.925 416.678 199.689C418.495 198.779 420.313 197.87 422.186 196.933C431.926 193.915 438.807 195.206 448.73 197.095C447.848 199.663 446.967 202.23 446.059 204.875C447.821 204.02 449.584 203.164 451.401 202.282C451.346 204.208 451.29 206.133 451.234 208.117C451.383 214.483 452.221 219.557 454.072 225.622C451.427 225.622 448.783 225.622 446.059 225.622C442.48 226.416 438.913 227.268 435.375 228.216C436.256 225.648 437.137 223.081 438.046 220.436C435.401 222.147 432.757 223.859 430.033 225.622C422.66 226.586 416.174 226.085 408.664 225.622C403.322 220.436 403.322 220.436 402.801 214.823C402.863 212.717 402.925 210.611 402.989 208.441C403.037 206.322 403.085 204.202 403.135 202.019C403.197 200.394 403.259 198.769 403.322 197.095C411.335 194.502 411.335 194.502 416.678 194.502Z" fill="#AAAAAA"/>
<path d="M235.049 443.465C240.391 448.651 240.391 448.651 240.725 455.459C240.615 457.492 240.504 459.524 240.391 461.618C236.865 461.618 233.339 461.618 229.707 461.618C229.707 459.051 229.707 456.483 229.707 453.838C227.063 454.694 224.418 455.55 221.694 456.431C219.735 461.657 219.735 461.657 219.023 466.805C221.557 466.698 224.091 466.591 226.702 466.481C235.049 466.805 235.049 466.805 240.391 471.992C241.877 490.173 241.877 490.173 237.386 497.925C229.979 501.761 224.6 501.52 216.352 500.519C211.344 497.277 211.344 497.277 208.339 492.739C208.339 489.315 208.339 485.892 208.339 482.365C211.864 482.365 215.39 482.365 219.023 482.365C219.904 484.077 220.786 485.788 221.694 487.552C224.338 488.408 226.982 489.263 229.707 490.145C229.707 485.866 229.707 481.587 229.707 477.178C227.668 477.339 225.63 477.499 223.53 477.665C216.352 477.178 216.352 477.178 211.511 474.423C206.548 466.562 207.347 460.233 208.339 451.245C214.279 440.728 223.824 442.474 235.049 443.465Z" fill="#222222"/>
<path d="M451.401 443.465C454.926 443.465 458.452 443.465 462.085 443.465C462.085 458.869 462.085 474.274 462.085 490.145C465.61 490.145 469.136 490.145 472.769 490.145C472.769 475.596 472.769 461.048 472.769 446.058C476.294 445.202 479.82 444.346 483.453 443.465C483.685 451.514 483.828 459.563 483.954 467.615C484.021 469.9 484.088 472.185 484.157 474.539C484.196 477.837 484.196 477.837 484.235 481.2C484.298 484.235 484.298 484.235 484.362 487.332C483.21 494.179 481.113 496.409 475.44 500.519C461.713 502.185 461.713 502.185 454.955 497.289C450.442 491.512 450.469 488.391 450.618 481.2C450.644 479.002 450.67 476.804 450.696 474.539C450.763 472.255 450.831 469.97 450.9 467.615C450.936 465.3 450.972 462.985 451.009 460.6C451.104 454.887 451.236 449.177 451.401 443.465Z" fill="#3F3F3F"/>
<path d="M430.033 443.465C435.375 448.651 435.375 448.651 435.708 455.459C435.598 457.492 435.488 459.524 435.375 461.618C432.73 461.618 430.086 461.618 427.362 461.618C426.48 459.907 425.599 458.195 424.691 456.432C421.165 455.576 417.639 454.72 414.006 453.838C414.006 465.819 414.006 477.801 414.006 490.145C417.532 489.289 421.058 488.434 424.691 487.552C425.572 484.129 426.453 480.705 427.362 477.178C425.599 477.178 423.836 477.178 422.019 477.178C422.019 473.755 422.019 470.332 422.019 466.805C426.427 466.805 430.834 466.805 435.375 466.805C435.519 471.451 435.622 476.097 435.708 480.744C435.77 483.332 435.832 485.919 435.896 488.585C435.375 495.332 435.375 495.332 430.033 500.519C413.796 501.952 413.796 501.952 406.797 497.875C401.33 489.793 402.167 481.33 402.321 471.992C402.29 470.113 402.259 468.234 402.227 466.298C402.271 458.515 402.322 452.723 406.797 446.109C414.42 441.668 421.418 442.704 430.033 443.465Z" fill="#353535"/>
<path d="M507.492 443.465C511.899 443.465 516.306 443.465 520.847 443.465C526.112 454.733 528.348 465.894 530.529 477.989C530.887 479.909 531.246 481.83 531.614 483.809C532.49 488.512 533.347 493.218 534.202 497.925C530.676 498.781 527.151 499.637 523.518 500.519C522.637 496.24 521.755 491.961 520.847 487.552C515.639 488.057 515.639 488.057 510.163 490.145C506.732 495.29 506.732 495.29 504.821 500.519C502.177 500.519 499.532 500.519 496.808 500.519C499.433 481.21 502.077 462.24 507.492 443.465ZM512.834 464.212C512.834 468.491 512.834 472.77 512.834 477.178C514.597 477.178 516.36 477.178 518.176 477.178C517.295 472.899 516.413 468.62 515.505 464.212C514.623 464.212 513.742 464.212 512.834 464.212Z" fill="#494948"/>
<path d="M262.521 443.211C266.193 443.257 266.193 443.257 269.939 443.303C272.394 443.326 274.849 443.349 277.378 443.374C279.275 443.404 281.173 443.434 283.127 443.465C283.127 446.888 283.127 450.311 283.127 453.838C277.839 453.838 272.55 453.838 267.101 453.838C267.101 458.117 267.101 462.396 267.101 466.805C270.627 466.805 274.153 466.805 277.785 466.805C277.785 470.228 277.785 473.651 277.785 477.178C274.259 477.178 270.734 477.178 267.101 477.178C267.101 481.457 267.101 485.736 267.101 490.145C272.39 490.145 277.678 490.145 283.127 490.145C283.127 493.568 283.127 496.992 283.127 500.519C278.731 500.588 274.335 500.639 269.939 500.681C267.491 500.711 265.043 500.741 262.521 500.772C256.417 500.519 256.417 500.519 253.746 497.925C253.482 494.096 253.397 490.255 253.391 486.417C253.388 484.097 253.384 481.777 253.381 479.387C253.396 475.726 253.396 475.726 253.412 471.992C253.402 469.551 253.392 467.111 253.381 464.597C253.384 462.276 253.388 459.956 253.391 457.566C253.396 454.352 253.396 454.352 253.4 451.073C253.909 443.693 254.899 443.528 262.521 443.211Z" fill="#4D4D4D"/>
<path d="M345.322 443.211C348.994 443.257 348.994 443.257 352.74 443.303C355.195 443.326 357.65 443.349 360.179 443.374C362.077 443.404 363.974 443.434 365.928 443.465C365.928 446.888 365.928 450.311 365.928 453.838C360.64 454.694 355.351 455.55 349.902 456.431C349.902 458.999 349.902 461.566 349.902 464.212C353.428 465.067 356.954 465.923 360.586 466.805C360.586 470.228 360.586 473.651 360.586 477.178C357.061 477.178 353.535 477.178 349.902 477.178C349.902 484.025 349.902 490.871 349.902 497.925C344.727 499.384 344.727 499.384 339.218 500.519C334.973 496.397 336.201 492.119 336.193 486.417C336.189 484.097 336.186 481.777 336.182 479.387C336.198 475.726 336.198 475.726 336.213 471.992C336.203 469.551 336.193 467.111 336.182 464.597C336.186 462.276 336.189 459.956 336.193 457.566C336.197 454.352 336.197 454.352 336.202 451.073C336.71 443.693 337.7 443.528 345.322 443.211Z" fill="#353535"/>
<path d="M352.573 306.017C361.877 313.846 365.372 320.459 368.599 331.95C363.385 337.013 359.165 339.337 352.573 342.324C352.573 344.891 352.573 347.459 352.573 350.104C348.166 350.96 343.759 351.815 339.218 352.697C337.716 347.672 337.716 347.672 336.547 342.324C337.429 341.468 338.31 340.612 339.218 339.73C339.218 337.163 339.218 334.595 339.218 331.95C340.1 331.094 340.981 330.239 341.889 329.357C340.126 328.501 338.364 327.645 336.547 326.763C335.666 325.908 334.784 325.052 333.876 324.17C333.876 322.459 333.876 320.747 333.876 318.983C337.966 315.64 337.966 315.64 343.225 312.176C344.96 311.019 346.695 309.862 348.483 308.671C349.833 307.795 351.183 306.919 352.573 306.017Z" fill="#6A6A6A"/>
<path d="M299.153 443.465C301.797 443.465 304.442 443.465 307.166 443.465C307.166 458.869 307.166 474.274 307.166 490.145C312.455 490.145 317.743 490.145 323.192 490.145C323.192 493.568 323.192 496.992 323.192 500.519C319.242 500.588 315.291 500.639 311.34 500.681C308.039 500.726 308.039 500.726 304.673 500.772C299.153 500.519 299.153 500.519 296.482 497.925C296.218 494.096 296.133 490.255 296.127 486.417C296.124 484.097 296.12 481.777 296.117 479.387C296.132 475.726 296.132 475.726 296.148 471.992C296.138 469.551 296.128 467.111 296.117 464.597C296.12 462.277 296.124 459.956 296.127 457.566C296.132 454.352 296.132 454.352 296.137 451.073C296.482 446.058 296.482 446.058 299.153 443.465Z" fill="#474747"/>
<path d="M432.036 270.52C434.085 270.612 436.133 270.704 438.244 270.799C453.416 271.666 453.416 271.666 459.414 277.49C460.123 282.92 460.123 282.92 460.082 289.16C460.095 291.219 460.109 293.278 460.123 295.4C459.414 300.83 459.414 300.83 454.072 306.017C453.19 302.593 452.309 299.17 451.401 295.643C448.756 295.643 446.112 295.643 443.388 295.643C446.913 293.932 450.439 292.22 454.072 290.457C446.553 284.551 446.553 284.551 438.046 285.27C438.046 283.558 438.046 281.847 438.046 280.083C434.52 280.083 430.994 280.083 427.362 280.083C425.599 280.083 423.836 280.083 422.02 280.083C422.02 278.371 422.02 276.66 422.02 274.896C417.612 278.32 413.205 281.743 408.665 285.27C406.902 284.414 405.139 283.558 403.323 282.676C403.323 281.821 403.323 280.965 403.323 280.083C402.441 278.371 401.56 276.66 400.652 274.896C397.126 275.752 393.6 276.608 389.968 277.49C390.849 275.778 391.73 274.066 392.639 272.303C405.849 269.017 418.575 269.702 432.036 270.52Z" fill="#424242"/>
<path d="M598.306 448.651C605.358 448.651 612.409 448.651 619.674 448.651C625.335 454.147 623.463 465.818 623.848 473.45C623.963 475.541 624.078 477.632 624.197 479.787C624.481 484.968 624.75 490.15 625.016 495.332C619.674 497.925 619.674 497.925 598.306 495.332C598.306 479.927 598.306 464.523 598.306 448.651ZM603.648 453.838C603.648 465.819 603.648 477.801 603.648 490.145C608.055 489.289 612.463 488.434 617.003 487.552C617.003 477.282 617.003 467.012 617.003 456.431C612.596 455.576 608.189 454.72 603.648 453.838Z" fill="#323232"/>
<path d="M507.492 443.465C511.899 443.465 516.306 443.465 520.847 443.465C526.183 454.151 526.665 462.79 526.189 474.585C523.544 474.585 520.9 474.585 518.176 474.585C517.294 472.018 516.413 469.45 515.505 466.805C512.86 470.228 510.216 473.651 507.492 477.178C504.821 474.585 504.821 474.585 504.487 464.698C504.57 457.238 505.041 450.602 507.492 443.465Z" fill="#303030"/>
<path d="M365.928 171.162C366.81 172.873 367.691 174.585 368.599 176.349C367.718 178.06 366.837 179.772 365.928 181.535C365.528 185.097 365.265 188.674 365.083 192.253C364.971 194.343 364.86 196.432 364.744 198.585C364.587 201.859 364.587 201.859 364.426 205.2C364.311 207.403 364.195 209.606 364.077 211.876C363.793 217.322 363.524 222.769 363.257 228.216C362.376 228.216 361.495 228.216 360.586 228.216C359.705 218.802 358.824 209.388 357.915 199.689C351.745 203.968 345.575 208.247 339.218 212.656C338.337 210.944 337.456 209.232 336.547 207.469C338.31 205.757 340.073 204.046 341.889 202.282C341.008 200.571 340.127 198.859 339.218 197.095C341.863 195.384 344.507 193.672 347.231 191.909C347.231 189.341 347.231 186.774 347.231 184.129C351.321 180.532 351.321 180.532 356.58 177.159C359.183 175.459 359.183 175.459 361.838 173.725C363.863 172.456 363.863 172.456 365.928 171.162Z" fill="#A8A8A7"/>
<path d="M345.322 443.211C348.994 443.257 348.994 443.257 352.74 443.303C355.195 443.326 357.65 443.349 360.18 443.374C362.077 443.404 363.974 443.434 365.928 443.465C365.928 446.888 365.928 450.311 365.928 453.838C357.712 454.598 357.712 454.598 349.496 455.358C347.867 455.712 346.238 456.066 344.56 456.431C340.605 464.112 340.946 471.564 340.387 480.096C340.163 483.419 339.939 486.742 339.709 490.165C339.466 494.007 339.466 494.007 339.218 497.925C338.337 497.925 337.456 497.925 336.547 497.925C336.47 489.335 336.422 480.744 336.38 472.154C336.358 469.702 336.336 467.25 336.313 464.723C336.304 462.391 336.295 460.06 336.287 457.657C336.273 455.498 336.259 453.339 336.244 451.114C336.689 443.699 337.674 443.529 345.322 443.211Z" fill="#565656"/>
<path d="M405.993 287.863C410.468 288.605 414.925 289.465 419.348 290.456C419.348 292.168 419.348 293.88 419.348 295.643C421.993 294.787 424.637 293.932 427.361 293.05C427.692 294.708 428.023 296.366 428.363 298.074C428.914 299.84 429.465 301.605 430.032 303.423C431.795 304.279 433.558 305.135 435.375 306.017C431.13 310.137 426.699 309.051 420.851 309.096C417.633 309.151 417.633 309.151 414.351 309.208C408.664 308.61 408.664 308.61 403.322 303.423C402.822 296.778 402.822 296.778 403.322 290.456C404.204 289.601 405.085 288.745 405.993 287.863Z" fill="#2A2A2A"/>
<path d="M547.557 446.058C555.57 453.838 555.57 453.838 556.071 462.105C555.823 465.715 555.823 465.715 555.57 469.398C559.096 470.254 562.622 471.11 566.254 471.992C565.373 473.703 564.491 475.415 563.583 477.178C560.939 477.178 558.295 477.178 555.57 477.178C555.57 484.881 555.57 492.583 555.57 500.519C552.926 500.519 550.282 500.519 547.557 500.519C547.557 482.547 547.557 464.575 547.557 446.058Z" fill="#181818"/>
<path d="M237.72 471.992C238.601 471.992 239.483 471.992 240.391 471.992C241.357 491.07 241.357 491.07 237.386 497.925C229.979 501.761 224.6 501.52 216.352 500.519C211.344 497.277 211.344 497.277 208.339 492.739C208.339 489.315 208.339 485.892 208.339 482.365C211.865 482.365 215.39 482.365 219.023 482.365C219.904 484.077 220.786 485.788 221.694 487.552C224.338 488.408 226.983 489.263 229.707 490.145C229.707 485.866 229.707 481.587 229.707 477.178C230.588 477.178 231.47 477.178 232.378 477.178C233.259 481.457 234.141 485.737 235.049 490.145C235.93 484.155 236.812 478.164 237.72 471.992Z" fill="#444444"/>
<path d="M259.088 456.432C260.851 459.855 262.614 463.278 264.43 466.805C271.255 468.91 271.255 468.91 277.785 469.398C277.785 471.966 277.785 474.533 277.785 477.178C274.259 477.178 270.733 477.178 267.101 477.178C267.101 481.457 267.101 485.736 267.101 490.145C272.39 490.145 277.678 490.145 283.127 490.145C283.127 491.857 283.127 493.568 283.127 495.332C275.194 495.332 267.261 495.332 259.088 495.332C259.088 482.495 259.088 469.658 259.088 456.432Z" fill="#343434"/>
<path d="M475.44 443.465C478.084 443.465 480.728 443.465 483.453 443.465C483.608 451.569 483.703 459.672 483.787 467.777C483.831 470.084 483.876 472.391 483.922 474.767C483.94 476.974 483.957 479.18 483.974 481.453C484.002 483.491 484.03 485.528 484.059 487.627C483.453 492.739 483.453 492.739 478.111 497.925C475.648 490.753 475.125 486.559 475.179 479.174C475.192 476.053 475.192 476.053 475.205 472.868C475.227 470.707 475.25 468.545 475.273 466.319C475.285 464.127 475.297 461.936 475.309 459.678C475.341 454.274 475.389 448.869 475.44 443.465Z" fill="#181818"/>
<path d="M451.401 285.27C452.282 286.981 453.163 288.693 454.072 290.456C453.19 291.312 452.309 292.168 451.401 293.05C452.282 295.617 453.163 298.185 454.072 300.83C453.19 304.253 452.309 307.676 451.401 311.203C438.179 311.203 424.958 311.203 411.335 311.203C411.335 310.348 411.335 309.492 411.335 308.61C418.387 307.754 425.438 306.898 432.704 306.017C432.814 304.519 432.924 303.021 433.037 301.478C436.552 292.705 443.295 289.958 451.401 285.27Z" fill="#A4A4A4"/>
<path d="M352.573 204.875C354.336 205.731 356.099 206.587 357.915 207.469C357.915 213.52 357.915 219.571 357.915 225.622C353.825 228.965 353.825 228.965 348.567 232.43C346.831 233.587 345.096 234.743 343.308 235.935C341.959 236.811 340.609 237.687 339.218 238.589C337.455 237.733 335.693 236.878 333.876 235.996C333.876 232.573 333.876 229.149 333.876 225.622C335.639 224.767 337.402 223.911 339.218 223.029C339.218 220.462 339.218 217.894 339.218 215.249C345.896 209.576 345.896 209.576 352.573 204.875Z" fill="#A2A2A2"/>
<path d="M419.348 202.282C421.111 203.138 422.874 203.994 424.69 204.876C423.809 206.587 422.928 208.299 422.019 210.062C422.901 211.774 423.782 213.486 424.69 215.249C431.441 216.949 431.441 216.949 438.046 217.842C435.375 221.732 435.375 221.732 430.032 225.622C422.771 226.332 415.992 225.972 408.664 225.622C407.783 221.343 406.902 217.064 405.993 212.656C410.401 209.232 414.808 205.809 419.348 202.282Z" fill="#3A3A3A"/>
<path d="M408.664 191.909C415.732 191.839 422.798 191.787 429.866 191.747C431.881 191.725 433.897 191.703 435.974 191.681C441.117 191.658 446.26 191.773 451.401 191.909C455.818 196.198 455.767 201.788 456.91 207.631C457.381 210.015 457.853 212.398 458.339 214.854C458.871 217.617 458.871 217.617 459.414 220.436C456.769 221.719 456.769 221.719 454.072 223.029C454.072 221.317 454.072 219.606 454.072 217.842C452.309 216.987 450.546 216.131 448.73 215.249C448.73 211.826 448.73 208.402 448.73 204.876C446.085 204.876 443.441 204.876 440.717 204.876C441.598 203.164 442.479 201.452 443.388 199.689C442.506 197.977 441.625 196.266 440.717 194.502C432.784 196.214 424.851 197.925 416.677 199.689C416.677 197.977 416.677 196.266 416.677 194.502C411.389 197.07 411.389 197.07 405.993 199.689C406.875 197.121 407.756 194.554 408.664 191.909Z" fill="#292929"/>
<path d="M547.557 443.465C551.358 443.304 555.159 443.144 559.076 442.978C562.283 442.843 562.283 442.843 565.555 442.705C571.596 443.465 571.596 443.465 576.354 446.706C582.096 454.712 580.09 462.495 579.609 471.992C577.846 471.992 576.084 471.992 574.267 471.992C573.386 465.145 572.504 458.299 571.596 451.245C566.308 452.101 561.019 452.956 555.57 453.838C554.689 458.973 553.807 464.108 552.899 469.398C552.018 469.398 551.136 469.398 550.228 469.398C549.347 460.84 548.465 452.282 547.557 443.465Z" fill="#484848"/>
<path d="M360.586 334.544C362.349 337.967 364.112 341.39 365.928 344.917C367.691 344.917 369.454 344.917 371.27 344.917C367.709 355.29 361.933 357.463 352.573 363.071C347.231 360.477 347.231 360.477 344.56 357.884C344.56 356.172 344.56 354.461 344.56 352.697C347.205 350.985 349.849 349.274 352.573 347.51C352.573 344.943 352.573 342.376 352.573 339.73C355.218 338.019 357.862 336.307 360.586 334.544Z" fill="#A7A7A7"/>
<path d="M365.928 331.95C367.092 333.013 368.256 334.076 369.455 335.172C379.4 343.908 387.318 349.539 400.652 352.697C400.652 354.409 400.652 356.12 400.652 357.884C398.007 358.74 395.363 359.595 392.639 360.477C392.639 358.766 392.639 357.054 392.639 355.29C389.994 356.146 387.35 357.002 384.626 357.884C384.626 356.172 384.626 354.461 384.626 352.697C381.981 353.553 379.337 354.409 376.612 355.29C373.968 353.579 371.324 351.867 368.599 350.104C365.955 349.248 363.311 348.392 360.586 347.51C362.349 342.376 364.112 337.241 365.928 331.95Z" fill="#252525"/>
<path d="M256.417 443.465C265.231 443.465 274.046 443.465 283.127 443.465C283.127 446.888 283.127 450.311 283.127 453.838C277.838 453.838 272.55 453.838 267.101 453.838C267.101 458.117 267.101 462.396 267.101 466.805C270.627 467.661 274.152 468.517 277.785 469.398C273.378 469.398 268.971 469.398 264.43 469.398C260.633 460.796 258.046 452.691 256.417 443.465Z" fill="#464646"/>
<path d="M598.306 448.651C600.069 448.651 601.832 448.651 603.648 448.651C603.648 462.344 603.648 476.037 603.648 490.145C607.174 490.145 610.7 490.145 614.332 490.145C614.332 491.857 614.332 493.568 614.332 495.332C609.044 495.332 603.755 495.332 598.306 495.332C598.306 479.927 598.306 464.523 598.306 448.651Z" fill="#272727"/>
<path d="M373.941 264.523C374.823 267.09 375.704 269.658 376.612 272.303C379.257 272.303 381.901 272.303 384.625 272.303C383.744 274.87 382.863 277.438 381.954 280.083C375.784 280.083 369.614 280.083 363.257 280.083C363.257 292.064 363.257 304.046 363.257 316.39C362.376 316.39 361.495 316.39 360.586 316.39C360.586 305.265 360.586 294.139 360.586 282.676C358.824 281.821 357.061 280.965 355.244 280.083C361.414 274.948 367.584 269.813 373.941 264.523Z" fill="#BFBFBE"/>
<path d="M528.86 477.178C530.623 484.025 532.386 490.871 534.202 497.925C530.676 498.781 527.15 499.637 523.518 500.519C522.636 495.384 521.755 490.249 520.847 484.959C517.321 484.103 513.795 483.247 510.163 482.365C517.234 478.577 520.565 477.178 528.86 477.178Z" fill="#363636"/>
<path d="M416.678 194.502C416.678 196.214 416.678 197.925 416.678 199.689C420.203 197.977 423.729 196.265 427.362 194.502C424.055 204.133 419.743 206.881 411.336 212.655C409.573 212.655 407.81 212.655 405.994 212.655C405.112 215.223 404.231 217.79 403.323 220.436C403.323 212.733 403.323 205.031 403.323 197.095C411.336 194.502 411.336 194.502 416.678 194.502Z" fill="#9B9B9B"/>
<path d="M395.143 355.615C396.96 356.363 398.778 357.112 400.651 357.884C393.151 365.571 386.807 372.005 376.612 376.037C376.612 374.326 376.612 372.614 376.612 370.851C373.968 370.851 371.324 370.851 368.599 370.851C384.824 355.188 384.824 355.188 395.143 355.615Z" fill="#A8A8A8"/>
<path d="M355.244 329.357C357.007 330.213 358.77 331.068 360.586 331.95C359.264 333.501 357.942 335.052 356.58 336.651C351.818 342.247 351.818 342.247 352.573 350.104C348.166 350.96 343.759 351.815 339.218 352.697C338.337 349.274 337.456 345.851 336.547 342.324C342.717 338.045 348.887 333.766 355.244 329.357Z" fill="#8A8A8A"/>
<path d="M422.02 466.805C426.427 466.805 430.834 466.805 435.375 466.805C435.375 475.363 435.375 483.921 435.375 492.739C432.73 491.883 430.086 491.027 427.362 490.145C427.362 485.866 427.362 481.587 427.362 477.178C425.599 477.178 423.836 477.178 422.02 477.178C422.02 473.755 422.02 470.332 422.02 466.805Z" fill="#1C1C1C"/>
<path d="M216.352 443.465C225.366 443.141 225.366 443.141 235.049 443.465C240.391 448.652 240.391 448.652 240.725 455.459C240.615 457.492 240.504 459.524 240.391 461.618C236.865 461.618 233.339 461.618 229.707 461.618C229.707 459.051 229.707 456.483 229.707 453.838C227.063 452.982 224.418 452.127 221.694 451.245C222.575 450.389 223.457 449.533 224.365 448.652C221.721 446.94 219.076 445.228 216.352 443.465Z" fill="#3E3E3E"/>
<path d="M416.677 274.896C418.44 274.896 420.203 274.896 422.019 274.896C422.019 276.608 422.019 278.319 422.019 280.083C425.545 279.227 429.071 278.371 432.703 277.49C421.082 289.714 421.082 289.714 413.673 292.888C408.664 293.05 408.664 293.05 400.651 287.863C404.023 281.316 407.329 280.529 414.006 277.49C414.888 276.634 415.769 275.778 416.677 274.896Z" fill="#A7A7A7"/>
<path d="M411.335 443.465C420.35 443.141 420.35 443.141 430.033 443.465C435.375 448.652 435.375 448.652 435.708 455.459C435.598 457.492 435.488 459.524 435.375 461.618C432.73 461.618 430.086 461.618 427.362 461.618C426.48 459.907 425.599 458.195 424.69 456.432C422.046 454.72 419.402 453.008 416.677 451.245C414.915 448.677 413.152 446.11 411.335 443.465Z" fill="#393939"/>
<path d="M352.573 306.017C354.336 309.44 356.099 312.863 357.915 316.39C349.982 322.809 349.982 322.809 341.889 329.357C336.547 326.763 336.547 326.763 333.876 324.17C333.876 322.459 333.876 320.747 333.876 318.983C337.966 315.64 337.966 315.64 343.225 312.176C344.96 311.019 346.695 309.862 348.483 308.671C349.833 307.795 351.183 306.919 352.573 306.017Z" fill="#A7A7A7"/>
<path d="M363.257 256.743C365.02 257.598 366.783 258.454 368.599 259.336C368.599 261.903 368.599 264.471 368.599 267.116C361.922 272.789 361.922 272.789 355.244 277.49C353.481 276.634 351.719 275.778 349.902 274.896C349.902 274.04 349.902 273.185 349.902 272.303C348.139 271.447 346.377 270.591 344.56 269.709C350.73 265.43 356.9 261.151 363.257 256.743Z" fill="#A8A8A8"/>
<path d="M304.495 448.651C305.377 448.651 306.258 448.651 307.166 448.651C307.166 462.344 307.166 476.037 307.166 490.145C312.455 490.145 317.743 490.145 323.192 490.145C323.192 491.857 323.192 493.568 323.192 495.332C316.141 495.332 309.089 495.332 301.824 495.332C303.146 472.225 303.146 472.225 304.495 448.651Z" fill="#0B0B0B"/>
<path d="M357.915 243.776C359.678 247.199 361.441 250.622 363.257 254.149C357.969 257.573 352.68 260.996 347.231 264.523C346.35 262.811 345.468 261.1 344.56 259.336C341.916 260.62 341.916 260.62 339.218 261.929C342.78 251.556 348.556 249.383 357.915 243.776Z" fill="#A5A5A5"/>
<path d="M434.707 193.53C437.682 194.011 437.682 194.011 440.717 194.502C440.383 199.203 440.383 199.203 438.046 204.875C430.199 209.576 430.199 209.576 422.02 212.656C420.257 211.8 418.494 210.944 416.677 210.062C425.553 194.741 425.553 194.741 434.707 193.53Z" fill="#898989"/>
<path d="M339.218 298.237C344.56 298.237 349.902 298.237 355.244 298.237C355.244 299.948 355.244 301.66 355.244 303.423C350.57 306.766 350.57 306.766 344.56 310.231C342.577 311.388 340.594 312.544 338.55 313.736C337.008 314.612 335.465 315.488 333.876 316.39C333.542 310.231 333.542 310.231 333.876 303.423C335.639 301.712 337.402 300 339.218 298.237Z" fill="#9A9A9A"/>
<path d="M261.759 477.178C262.64 477.178 263.522 477.178 264.43 477.178C264.43 481.458 264.43 485.737 264.43 490.145C270.6 490.145 276.77 490.145 283.127 490.145C283.127 491.857 283.127 493.569 283.127 495.332C275.194 495.332 267.261 495.332 259.088 495.332C258.974 490.146 258.979 484.957 259.088 479.772C259.969 478.916 260.851 478.06 261.759 477.178Z" fill="#141414"/>
<path d="M208.339 482.365C211.865 482.365 215.39 482.365 219.023 482.365C219.904 484.077 220.786 485.788 221.694 487.552C224.338 489.263 226.983 490.975 229.707 492.739C224.418 494.45 219.13 496.162 213.681 497.925C211.918 496.214 210.155 494.502 208.339 492.739C208.339 489.315 208.339 485.892 208.339 482.365Z" fill="#282828"/>
<path d="M443.388 210.062C446.032 210.062 448.676 210.062 451.401 210.062C452.282 215.197 453.163 220.332 454.072 225.622C451.427 225.622 448.783 225.622 446.059 225.622C442.48 226.417 438.913 227.268 435.375 228.216C437.137 225.648 438.9 223.081 440.717 220.436C440.717 217.868 440.717 215.301 440.717 212.656C441.598 211.8 442.479 210.944 443.388 210.062Z" fill="#6E6E6E"/>
<path d="M365.928 171.162C366.81 172.873 367.691 174.585 368.599 176.349C365.595 181.373 365.595 181.373 360.586 186.722C352.073 188.667 352.073 188.667 344.56 189.315C351.446 182.449 357.692 176.493 365.928 171.162Z" fill="#858585"/>
<path d="M459.414 217.842C470.872 217.842 482.331 217.842 494.137 217.842C494.137 218.698 494.137 219.554 494.137 220.436C492.109 220.75 490.081 221.064 487.991 221.388C484.009 222.04 484.009 222.04 479.947 222.705C477.313 223.126 474.679 223.547 471.965 223.981C464.22 225.313 464.22 225.313 456.743 230.809C457.624 226.53 458.506 222.251 459.414 217.842Z" fill="#535353"/>
<path d="M381.954 261.929C390.769 264.497 399.583 267.064 408.665 269.71C408.665 270.565 408.665 271.421 408.665 272.303C388.298 274.896 388.298 274.896 379.283 274.896C380.165 270.617 381.046 266.338 381.954 261.929Z" fill="#2B2B2B"/>
<path d="M574.267 451.245C574.267 456.38 574.267 461.515 574.267 466.805C571.623 468.089 571.623 468.089 568.925 469.398C568.044 465.119 567.162 460.84 566.254 456.432C562.728 456.432 559.203 456.432 555.57 456.432C555.57 454.72 555.57 453.008 555.57 451.245C563.611 448.822 565.898 448.536 574.267 451.245Z" fill="#363636"/>
<path d="M216.352 451.245C218.115 452.956 219.878 454.668 221.694 456.432C220.692 461.942 220.692 461.942 219.023 466.805C224.311 466.805 229.6 466.805 235.049 466.805C235.049 467.661 235.049 468.517 235.049 469.398C228.836 470.386 222.6 471.247 216.352 471.992C213.681 469.398 213.681 469.398 213.347 461.618C213.681 453.838 213.681 453.838 216.352 451.245Z" fill="#353535"/>
<path d="M499.479 487.552C502.123 487.552 504.767 487.552 507.492 487.552C506.61 491.831 505.729 496.11 504.821 500.519C502.177 500.519 499.532 500.519 496.808 500.519C497.689 496.24 498.571 491.961 499.479 487.552Z" fill="#363636"/>
</svg>
