      <svg class="mx-3" width="30" height="30" viewBox="0 0 54 54" fill="none" xmlns="http://www.w3.org/2000/svg">
        <path d="M42.7315 4.90226C47.2607 8.31198 50.1767 12.5673 52.2121 17.8189C52.3504 18.1702 52.4888 18.5216 52.6313 18.8835C54.7504 25.2548 53.8386 32.5582 51.054 38.5394C47.3157 45.5861 41.5891 50.097 34.1127 52.667C26.8511 54.3893 19.2529 53.2819 12.8367 49.5774C10.8281 48.2326 9.10224 46.6473 7.39445 44.9439C7.11447 44.6692 6.8345 44.3945 6.54604 44.1114C1.91813 39.2341 -0.109103 32.3904 0.00451371 25.7724C0.443544 18.4656 3.52592 11.7202 8.87748 6.67998C18.8497 -1.6101 31.8598 -2.16225 42.7315 4.90226Z" fill="#303030"/>
        <path d="M28.5375 7.72788C29.0367 7.73038 29.5358 7.73287 30.05 7.73545C35.5199 7.81392 35.5199 7.81392 37.8835 9.74611C40.2755 12.6671 39.7828 15.9532 39.715 19.5412C37.5819 19.5412 35.4487 19.5412 33.2509 19.5412C32.9665 18.2625 32.6821 16.9837 32.3891 15.6662C30.1137 15.6662 27.8383 15.6662 25.494 15.6662C25.106 17.2171 24.9928 18.3912 25.0631 19.9718C25.5833 20.5878 25.5833 20.5878 27.1101 20.4831C28.6122 20.4696 29.7365 20.2205 31.0962 19.5412C30.8829 20.1806 30.8829 20.1806 30.6653 20.8329C31.2341 20.5487 31.803 20.2646 32.3891 19.9718C32.3891 20.256 32.3891 20.5401 32.3891 20.8329C33.6498 20.9292 33.6498 20.9292 34.5438 20.4024C34.9704 20.5444 35.397 20.6865 35.8366 20.8329C35.8366 21.1171 35.8366 21.4012 35.8366 21.694C36.2988 21.8983 36.7609 22.1025 37.2371 22.313C38.8496 23.2737 39.6196 24.2121 40.2924 25.9609C41.1309 29.8821 41.4231 35.0452 39.4002 38.6303C37.9439 40.5376 36.5278 41.5811 34.1128 41.9301C32.1837 42.0457 30.2543 42.0494 28.3221 42.0647C27.7985 42.0772 27.2749 42.0897 26.7355 42.1025C21.8861 42.137 21.8861 42.137 19.8918 40.2079C17.5104 37.2033 17.477 33.9895 17.7371 30.3051C17.4527 30.1631 17.1683 30.021 16.8752 29.8746C18.0129 29.0221 19.1506 28.1696 20.3228 27.2912C20.3228 27.7175 20.3228 28.1437 20.3228 28.5829C20.7494 28.5829 21.176 28.5829 21.6156 28.5829C22.9809 28.5829 23.4496 28.8533 24.6322 29.444C25.0588 29.444 25.4854 29.444 25.925 29.444C25.3561 29.7282 24.7873 30.0124 24.2012 30.3051C24.4061 30.9425 24.613 31.5793 24.8207 32.2157C24.9357 32.5704 25.0507 32.925 25.1691 33.2904C25.4171 34.1639 25.4171 34.1639 25.925 34.6107C26.9999 34.6766 28.0546 34.7104 29.1301 34.7183C29.4292 34.7272 29.7284 34.7361 30.0366 34.7452C31.01 34.7676 31.01 34.7676 32.3891 34.6107C33.2996 33.2461 33.3598 32.8901 33.3317 31.3277C33.3276 30.8132 33.3276 30.8132 33.3233 30.2883C33.3422 29.4428 33.3422 29.4428 32.82 29.0135C32.1886 28.9365 31.5542 28.8845 30.9195 28.8436C30.5281 28.8139 30.1368 28.7842 29.7336 28.7536C28.9124 28.6945 28.0909 28.6394 27.2691 28.5888C24.7012 28.3851 22.4354 27.993 20.3228 26.4301C19.5694 25.4534 19.1239 24.549 18.599 23.4162C18.4568 23.1321 18.3146 22.8479 18.1681 22.5551C18.0414 21.105 18.0482 19.6508 18.0334 18.1958C18.0209 17.7973 18.0084 17.3988 17.9955 16.9882C17.9673 13.9201 18.4552 11.7389 20.4795 9.38588C22.8039 7.33557 25.6003 7.64431 28.5375 7.72788Z" fill="#F2F2F2"/>
        <path d="M16.4443 34.1802C18.1516 35.5701 18.8489 37.2265 19.7016 39.2005C20.478 40.4597 21.1566 40.8423 22.4775 41.4996C23.7091 41.7068 23.7091 41.7068 25.0143 41.7048C25.4895 41.7181 25.9647 41.7314 26.4544 41.7452C26.9463 41.7529 27.4382 41.7607 27.945 41.7687C28.9253 41.7906 29.9056 41.8141 30.8858 41.8394C31.3189 41.8469 31.7521 41.8545 32.1983 41.8623C33.2509 41.9302 33.2509 41.9302 34.1128 42.3607C34.1128 42.6449 34.1128 42.9291 34.1128 43.2218C33.4529 43.7769 33.4529 43.7769 32.6045 44.3521C32.3246 44.5441 32.0446 44.7361 31.7561 44.934C31.5384 45.0794 31.3206 45.2248 31.0962 45.3746C30.8118 45.2325 30.5274 45.0905 30.2344 44.9441C29.9588 45.0861 29.6833 45.2282 29.3994 45.3746C28.5106 45.8052 28.5106 45.8052 27.2178 45.3746C26.0882 45.3746 25.2745 45.5094 24.2012 45.8052C24.3434 45.3789 24.4856 44.9527 24.6322 44.5135C24.0633 44.9398 23.4945 45.366 22.9084 45.8052C22.624 45.6631 22.3396 45.521 22.0465 45.3746C21.1423 45.5466 21.1423 45.5466 20.3228 45.8052C20.3228 45.521 20.3228 45.2368 20.3228 44.9441C19.8961 44.9441 19.4695 44.9441 19.0299 44.9441C18.6033 44.9441 18.1767 44.9441 17.7371 44.9441C17.8793 44.5178 18.0215 44.0916 18.1681 43.6524C17.3148 44.0786 17.3148 44.0786 16.4443 44.5135C16.4443 44.2293 16.4443 43.9452 16.4443 43.6524C16.1599 43.5103 15.8755 43.3682 15.5824 43.2218C15.4402 43.0798 15.298 42.9377 15.1515 42.7913C15.1515 42.5071 15.1515 42.223 15.1515 41.9302C14.8671 41.9302 14.5827 41.9302 14.2896 41.9302C14.0472 41.096 14.0472 41.096 13.8587 40.208C14.0009 40.0659 14.1431 39.9238 14.2896 39.7774C14.2896 39.3511 14.2896 38.9249 14.2896 38.4857C14.4318 38.3436 14.574 38.2016 14.7206 38.0552C14.4361 37.9131 14.1517 37.771 13.8587 37.6246C13.7165 37.4825 13.5743 37.3405 13.4277 37.1941C13.4277 36.9099 13.4277 36.6257 13.4277 36.333C14.0876 35.7779 14.0876 35.7779 14.936 35.2027C15.216 35.0107 15.496 34.8187 15.7844 34.6208C16.0022 34.4754 16.22 34.33 16.4443 34.1802Z" fill="#898989"/>
        <path d="M18.599 11.7913C18.7412 12.0754 18.8834 12.3596 19.0299 12.6524C18.8877 12.9365 18.7455 13.2207 18.599 13.5135C18.5578 14.1796 18.5427 14.8475 18.5418 15.5149C18.5412 15.9123 18.5407 16.3097 18.5401 16.7191C18.5418 17.1354 18.5434 17.5516 18.5451 17.9805C18.5435 18.3934 18.5418 18.8064 18.5401 19.2318C18.5409 19.8295 18.5409 19.8295 18.5418 20.4394C18.5423 20.8037 18.5427 21.168 18.5432 21.5433C18.5966 22.5114 18.7599 23.3486 19.0299 24.2774C18.7455 24.4195 18.4611 24.5615 18.1681 24.7079C18.0436 24.9832 17.9192 25.2585 17.791 25.5421C17.2075 26.611 16.6935 26.8472 15.5824 27.2913C15.4402 27.0071 15.298 26.7229 15.1515 26.4301C14.7249 26.6433 14.7249 26.6433 14.2896 26.8607C14.7206 25.569 14.7206 25.569 15.1515 25.1385C14.8671 24.9964 14.5827 24.8543 14.2896 24.7079C14.1474 24.5658 14.0052 24.4238 13.8587 24.2774C13.8587 23.4163 13.8587 23.4163 14.2896 22.9857C14.0052 22.8436 13.7208 22.7015 13.4277 22.5551C13.4277 21.9868 13.4277 21.4185 13.4277 20.8329C13.7122 20.6908 13.9966 20.5488 14.2896 20.4024C14.2896 19.9761 14.2896 19.5499 14.2896 19.1107C14.1474 18.9686 14.0052 18.8265 13.8587 18.6801C13.8587 17.819 13.8587 17.819 14.7206 16.9579C14.5783 16.6738 14.4361 16.3896 14.2896 16.0968C14.7162 15.8126 15.1429 15.5285 15.5824 15.2357C15.5824 14.8095 15.5824 14.3832 15.5824 13.944C16.2423 13.347 16.2423 13.347 17.0907 12.7869C17.5107 12.5047 17.5107 12.5047 17.9391 12.2168C18.2658 12.0061 18.2658 12.0061 18.599 11.7913Z" fill="#585857"/>
        <path d="M18.5989 38.4856C18.8067 38.6671 19.0145 38.8486 19.2285 39.0356C19.5007 39.2714 19.7729 39.5073 20.0534 39.7504C20.3233 39.9851 20.5933 40.2199 20.8715 40.4618C22.2196 41.5619 23.1739 41.5699 24.888 41.6206C25.6071 41.6447 25.6071 41.6447 26.3407 41.6694C27.0948 41.6918 27.0948 41.6918 27.8641 41.7148C28.8562 41.7443 29.8483 41.7756 30.8403 41.8089C31.2817 41.822 31.723 41.835 32.1777 41.8485C33.2509 41.93 33.2509 41.93 34.1128 42.3606C34.1128 42.6448 34.1128 42.9289 34.1128 43.2217C33.4529 43.7767 33.4529 43.7767 32.6045 44.3519C32.1845 44.64 32.1845 44.64 31.7561 44.9338C31.5383 45.0793 31.3205 45.2247 31.0962 45.3745C30.8118 45.2324 30.5273 45.0903 30.2343 44.9439C29.9588 45.086 29.6832 45.2281 29.3994 45.3745C28.5105 45.805 28.5105 45.805 27.2177 45.3745C26.0882 45.3745 25.2745 45.5092 24.2011 45.805C24.3434 45.3788 24.4856 44.9525 24.6321 44.5134C24.0632 44.9396 23.4944 45.3659 22.9083 45.805C22.6239 45.663 22.3395 45.5209 22.0465 45.3745C22.6153 44.6641 23.1841 43.9537 23.7702 43.2217C23.4858 43.2217 23.2014 43.2217 22.9083 43.2217C22.9083 42.9375 22.9083 42.6534 22.9083 42.3606C22.4817 42.5027 22.0551 42.6448 21.6155 42.7912C21.6155 42.507 21.6155 42.2228 21.6155 41.93C21.1889 42.0721 20.7623 42.2142 20.3227 42.3606C19.8961 42.0764 19.4694 41.7923 19.0299 41.4995C18.6032 41.3574 18.1766 41.2153 17.7371 41.0689C18.0215 40.2164 18.3059 39.3639 18.5989 38.4856Z" fill="#7F7F7E"/>
        <path d="M26.7868 29.0134C27.0712 29.0134 27.3556 29.0134 27.6487 29.0134C27.6487 29.2976 27.6487 29.5818 27.6487 29.8745C27.9153 29.8035 28.182 29.7325 28.4567 29.6593C29.5955 29.3916 30.0403 29.3471 31.0962 29.8745C31.5228 29.8745 31.9495 29.8745 32.389 29.8745C32.389 30.1587 32.389 30.4429 32.389 30.7356C32.5312 31.0198 32.6734 31.304 32.82 31.5968C32.6777 31.7388 32.5355 31.8809 32.389 32.0273C32.5312 32.4536 32.6734 32.8798 32.82 33.319C32.6314 34.2608 32.6314 34.2608 32.389 35.0412C31.3383 35.0761 30.2888 35.1017 29.2378 35.1219C28.7916 35.1382 28.7916 35.1382 28.3363 35.1547C26.1502 35.1864 26.1502 35.1864 25.09 34.503C24.2777 33.1664 24.3277 31.8468 24.2012 30.3051C24.4678 30.2518 24.7345 30.1985 25.0092 30.1436C26.0073 29.9297 26.0073 29.9297 26.7868 29.0134Z" fill="#8B8B8B"/>
        <path d="M17.737 24.2773C19.5812 24.4821 20.3503 25.5966 21.6155 26.8607C24.022 28.1854 26.9524 28.0495 29.6324 28.2432C30.0282 28.2754 30.424 28.3075 30.8318 28.3407C31.1927 28.3668 31.5536 28.3929 31.9255 28.4198C32.8199 28.5829 32.8199 28.5829 33.6818 29.444C33.7962 30.3455 33.7962 30.3455 33.7895 31.3815C33.7928 31.8943 33.7928 31.8943 33.7962 32.4175C33.6818 33.319 33.6818 33.319 32.8199 34.1801C32.6066 33.3276 32.6066 33.3276 32.3889 32.4579C31.9623 32.4579 31.5357 32.4579 31.0961 32.4579C31.665 32.1737 32.2338 31.8896 32.8199 31.5968C31.6067 30.6163 31.6067 30.6163 30.2342 30.7357C30.2342 30.4515 30.2342 30.1673 30.2342 29.8746C29.6654 29.8746 29.0966 29.8746 28.5105 29.8746C28.2261 29.8746 27.9416 29.8746 27.6486 29.8746C27.6486 29.5904 27.6486 29.3062 27.6486 29.0135C26.9376 29.5818 26.2265 30.1501 25.4939 30.7357C25.2095 30.5936 24.9251 30.4515 24.632 30.3051C24.632 30.163 24.632 30.021 24.632 29.8746C24.4898 29.5904 24.3476 29.3062 24.2011 29.0135C23.8011 29.12 23.8011 29.12 23.3931 29.2287C22.2543 29.4964 21.8094 29.5409 20.7536 29.0135C20.3269 29.0135 19.9003 29.0135 19.4608 29.0135C19.4608 28.7293 19.4608 28.4451 19.4608 28.1523C18.8475 28.4854 18.8475 28.4854 18.2218 28.8251C17.7774 29.0293 17.333 29.2336 16.8751 29.444C16.5907 29.3019 16.3063 29.1598 16.0132 29.0135C16.0132 28.8714 16.0132 28.7293 16.0132 28.5829C15.7288 28.4408 15.4444 28.2987 15.1514 28.1523C15.6713 27.6728 15.6713 27.6728 16.2018 27.1836C17.2069 26.1059 17.5799 25.6904 17.737 24.2773Z" fill="#353535"/>
        <path d="M26.7867 15.6663C26.7867 15.9504 26.7867 16.2346 26.7867 16.5274C27.08 16.3764 27.3733 16.2254 27.6755 16.0699C29.2469 15.5689 30.357 15.7832 31.958 16.0968C31.8158 16.5231 31.6736 16.9493 31.527 17.3885C31.8115 17.2464 32.0959 17.1043 32.3889 16.9579C32.38 17.2776 32.3711 17.5973 32.362 17.9267C32.386 18.9835 32.5212 19.8259 32.8199 20.8329C32.3932 20.8329 31.9666 20.8329 31.527 20.8329C30.9497 20.9648 30.3742 21.1061 29.8033 21.2635C29.9455 20.8372 30.0877 20.411 30.2342 19.9718C29.8076 20.256 29.381 20.5401 28.9414 20.8329C27.7519 20.993 26.7055 20.9098 25.4939 20.8329C24.632 19.9718 24.632 19.9718 24.5479 19.0401C24.5579 18.6904 24.5678 18.3407 24.5782 17.9805C24.5859 17.6286 24.5937 17.2767 24.6017 16.9142C24.6117 16.6445 24.6217 16.3747 24.632 16.0968C25.9248 15.6663 25.9248 15.6663 26.7867 15.6663Z" fill="#AAAAAA"/>
        <path d="M16.4443 34.1802C17.9454 35.48 18.5092 36.578 19.0299 38.4857C18.1887 39.3262 17.5079 39.7121 16.4443 40.208C16.4443 40.6342 16.4443 41.0605 16.4443 41.4996C15.7333 41.6417 15.0222 41.7838 14.2896 41.9302C14.0472 41.096 14.0472 41.096 13.8587 40.208C14.0009 40.0659 14.1431 39.9238 14.2896 39.7774C14.2896 39.3511 14.2896 38.9249 14.2896 38.4857C14.4318 38.3436 14.574 38.2016 14.7206 38.0552C14.4361 37.9131 14.1517 37.771 13.8587 37.6246C13.7165 37.4825 13.5743 37.3405 13.4277 37.1941C13.4277 36.9099 13.4277 36.6257 13.4277 36.333C14.0876 35.7779 14.0876 35.7779 14.936 35.2027C15.216 35.0107 15.496 34.8187 15.7844 34.6208C16.0022 34.4754 16.22 34.33 16.4443 34.1802Z" fill="#6A6A6A"/>
        <path d="M29.2647 28.2869C29.5952 28.3021 29.9258 28.3174 30.2663 28.3331C32.7141 28.4771 32.7141 28.4771 33.6818 29.444C33.7963 30.3455 33.7963 30.3455 33.7896 31.3815C33.7918 31.7234 33.794 32.0653 33.7963 32.4175C33.6818 33.319 33.6818 33.319 32.82 34.1801C32.6777 33.6118 32.5355 33.0434 32.389 32.4579C31.9624 32.4579 31.5358 32.4579 31.0962 32.4579C31.665 32.1737 32.2339 31.8896 32.82 31.5968C31.6068 30.6163 31.6068 30.6163 30.2343 30.7357C30.2343 30.4515 30.2343 30.1673 30.2343 29.8746C29.6655 29.8746 29.0966 29.8746 28.5106 29.8746C28.2261 29.8746 27.9417 29.8746 27.6487 29.8746C27.6487 29.5904 27.6487 29.3062 27.6487 29.0134C26.9376 29.5818 26.2266 30.1501 25.494 30.7357C25.2096 30.5936 24.9252 30.4515 24.6321 30.3051C24.6321 30.163 24.6321 30.0209 24.6321 29.8746C24.4899 29.5904 24.3477 29.3062 24.2012 29.0134C23.6323 29.1555 23.0635 29.2976 22.4774 29.444C22.6196 29.1598 22.7618 28.8757 22.9084 28.5829C25.0397 28.0373 27.0929 28.151 29.2647 28.2869Z" fill="#424242"/>
        <path d="M18.599 11.7913C18.7412 12.0754 18.8834 12.3596 19.0299 12.6524C18.8877 12.9365 18.7455 13.2207 18.599 13.5135C18.5343 14.1048 18.4919 14.6987 18.4626 15.2929C18.4446 15.6398 18.4265 15.9867 18.4079 16.344C18.3825 16.8877 18.3825 16.8877 18.3566 17.4423C18.338 17.8081 18.3194 18.1738 18.3002 18.5506C18.2544 19.4548 18.211 20.3592 18.168 21.2635C18.0258 21.2635 17.8836 21.2635 17.7371 21.2635C17.5949 19.7006 17.4527 18.1376 17.3062 16.5274C16.3107 17.2378 15.3152 17.9482 14.2896 18.6801C14.1474 18.396 14.0052 18.1118 13.8586 17.819C14.1431 17.5349 14.4275 17.2507 14.7205 16.9579C14.5783 16.6738 14.4361 16.3896 14.2896 16.0968C14.7162 15.8126 15.1428 15.5285 15.5824 15.2357C15.5824 14.8095 15.5824 14.3832 15.5824 13.944C16.2423 13.347 16.2423 13.347 17.0907 12.7869C17.5107 12.5047 17.5107 12.5047 17.9391 12.2168C18.2657 12.0061 18.2657 12.0061 18.599 11.7913Z" fill="#A8A8A7"/>
        <path d="M25.0631 31.1663C25.7851 31.2894 26.5041 31.4323 27.2178 31.5968C27.2178 31.881 27.2178 32.1651 27.2178 32.4579C27.6444 32.3158 28.071 32.1738 28.5106 32.0274C28.5639 32.3027 28.6172 32.5779 28.6722 32.8616C28.7611 33.1546 28.85 33.4477 28.9415 33.7496C29.2259 33.8917 29.5104 34.0338 29.8034 34.1801C29.1187 34.8643 28.4037 34.6839 27.4602 34.6914C26.9411 34.7006 26.9411 34.7006 26.4114 34.7099C25.494 34.6107 25.494 34.6107 24.6321 33.7496C24.5513 32.6463 24.5513 32.6463 24.6321 31.5968C24.7743 31.4547 24.9166 31.3126 25.0631 31.1663Z" fill="#2A2A2A"/>
        <path d="M32.389 30.7356C32.5312 31.0198 32.6734 31.3039 32.82 31.5967C32.6777 31.7388 32.5355 31.8809 32.389 32.0273C32.5312 32.4535 32.6734 32.8798 32.82 33.3189C32.6777 33.8873 32.5355 34.4556 32.389 35.0412C30.2559 35.0412 28.1227 35.0412 25.9249 35.0412C25.9249 34.8991 25.9249 34.757 25.9249 34.6106C27.0626 34.4685 28.2003 34.3264 29.3724 34.18C29.3902 33.9314 29.408 33.6827 29.4263 33.4266C29.9933 31.9699 31.0813 31.5139 32.389 30.7356Z" fill="#A4A4A4"/>
        <path d="M16.4443 17.3884C16.7287 17.5305 17.0131 17.6726 17.3062 17.819C17.3062 18.8236 17.3062 19.8282 17.3062 20.8329C16.6463 21.3879 16.6463 21.3879 15.7979 21.9631C15.5179 22.1551 15.2379 22.3471 14.9495 22.545C14.7317 22.6904 14.514 22.8358 14.2896 22.9857C14.0052 22.8436 13.7208 22.7015 13.4277 22.5551C13.4277 21.9868 13.4277 21.4184 13.4277 20.8329C13.7122 20.6908 13.9966 20.5487 14.2896 20.4023C14.2896 19.9761 14.2896 19.5498 14.2896 19.1106C15.367 18.1688 15.367 18.1688 16.4443 17.3884Z" fill="#A2A2A2"/>
        <path d="M27.2177 16.958C27.5021 17.1001 27.7865 17.2422 28.0796 17.3886C27.9374 17.6727 27.7951 17.9569 27.6486 18.2497C27.7908 18.5338 27.933 18.818 28.0796 19.1108C29.1687 19.393 29.1687 19.393 30.2343 19.5413C29.8033 20.1872 29.8033 20.1872 28.9414 20.833C27.7699 20.9507 26.6761 20.8911 25.4939 20.833C25.3517 20.1226 25.2095 19.4122 25.063 18.6802C25.774 18.1119 26.4851 17.5436 27.2177 16.958Z" fill="#3A3A3A"/>
        <path d="M25.4939 15.2356C26.6341 15.224 27.7743 15.2154 28.9145 15.2087C29.2398 15.2051 29.565 15.2014 29.9001 15.1977C30.7298 15.194 31.5596 15.2131 32.389 15.2356C33.1016 15.9476 33.0934 16.8758 33.2778 17.8458C33.3539 18.2415 33.43 18.6373 33.5084 19.045C33.5942 19.5037 33.5942 19.5037 33.6818 19.9717C33.2551 20.1848 33.2551 20.1848 32.8199 20.4022C32.8199 20.1181 32.8199 19.8339 32.8199 19.5411C32.5355 19.399 32.2511 19.257 31.958 19.1106C31.958 18.5422 31.958 17.9739 31.958 17.3884C31.5314 17.3884 31.1048 17.3884 30.6652 17.3884C30.8074 17.1042 30.9496 16.82 31.0961 16.5272C30.9539 16.2431 30.8117 15.9589 30.6652 15.6661C29.3853 15.9503 28.1054 16.2345 26.7867 16.5272C26.7867 16.2431 26.7867 15.9589 26.7867 15.6661C25.9335 16.0924 25.9335 16.0924 25.063 16.5272C25.2052 16.101 25.3474 15.6747 25.4939 15.2356Z" fill="#292929"/>
        <path d="M17.737 38.9163C18.0214 39.4846 18.3058 40.0529 18.5989 40.6385C18.8833 40.6385 19.1677 40.6385 19.4608 40.6385C18.8862 42.3607 17.9543 42.7214 16.4442 43.6524C15.5823 43.2218 15.5823 43.2218 15.1514 42.7913C15.1514 42.5071 15.1514 42.2229 15.1514 41.9301C15.578 41.646 16.0046 41.3618 16.4442 41.069C16.4442 40.6428 16.4442 40.2165 16.4442 39.7774C16.8708 39.4932 17.2974 39.209 17.737 38.9163Z" fill="#A7A7A7"/>
        <path d="M18.5989 38.4856C18.7867 38.6621 18.9745 38.8386 19.1679 39.0204C20.7724 40.4708 22.0498 41.4058 24.2011 41.93C24.2011 42.2142 24.2011 42.4984 24.2011 42.7912C23.7745 42.9332 23.3479 43.0753 22.9083 43.2217C22.9083 42.9375 22.9083 42.6534 22.9083 42.3606C22.4817 42.5027 22.0551 42.6448 21.6155 42.7912C21.6155 42.507 21.6155 42.2228 21.6155 41.93C21.1889 42.0721 20.7623 42.2142 20.3227 42.3606C19.8961 42.0764 19.4694 41.7923 19.0299 41.4995C18.6032 41.3574 18.1766 41.2153 17.7371 41.0689C18.0215 40.2164 18.3059 39.3639 18.5989 38.4856Z" fill="#252525"/>
        <path d="M19.8918 27.2913C20.034 27.7175 20.1762 28.1438 20.3228 28.5829C20.7494 28.5829 21.176 28.5829 21.6156 28.5829C21.4734 29.0092 21.3312 29.4354 21.1846 29.8746C20.1892 29.8746 19.1937 29.8746 18.1681 29.8746C18.1681 31.8638 18.1681 33.8529 18.1681 35.9024C18.0259 35.9024 17.8836 35.9024 17.7371 35.9024C17.7371 34.0553 17.7371 32.2082 17.7371 30.3051C17.4527 30.1631 17.1683 30.021 16.8752 29.8746C17.8707 29.0221 18.8662 28.1696 19.8918 27.2913Z" fill="#BFBFBE"/>
        <path d="M26.7868 15.6663C26.7868 15.9504 26.7868 16.2346 26.7868 16.5274C27.3556 16.2432 27.9245 15.959 28.5105 15.6663C27.9771 17.2652 27.2814 17.7215 25.9249 18.6801C25.6405 18.6801 25.3561 18.6801 25.063 18.6801C24.9208 19.1064 24.7786 19.5326 24.6321 19.9718C24.6321 18.6931 24.6321 17.4143 24.6321 16.0968C25.9249 15.6663 25.9249 15.6663 26.7868 15.6663Z" fill="#9B9B9B"/>
        <path d="M23.3124 42.4146C23.6057 42.5389 23.899 42.6633 24.2012 42.7914C22.9911 44.0675 21.9676 45.1357 20.3227 45.8052C20.3227 45.5211 20.3227 45.2369 20.3227 44.9441C19.8961 44.9441 19.4695 44.9441 19.0299 44.9441C21.6476 42.3438 21.6476 42.3438 23.3124 42.4146Z" fill="#A8A8A8"/>
        <path d="M16.8752 38.0552C17.1596 38.1973 17.4441 38.3393 17.7371 38.4857C17.5238 38.7433 17.3105 39.0008 17.0907 39.2661C16.3224 40.1952 16.3224 40.1952 16.4443 41.4996C15.7332 41.6417 15.0222 41.7838 14.2896 41.9302C14.1474 41.3618 14.0052 40.7935 13.8586 40.208C14.8541 39.4975 15.8496 38.7871 16.8752 38.0552Z" fill="#8A8A8A"/>
        <path d="M26.7868 29.0134C27.0712 29.0134 27.3556 29.0134 27.6487 29.0134C27.6487 29.2976 27.6487 29.5818 27.6487 29.8745C28.2175 29.7325 28.7864 29.5904 29.3724 29.444C27.4974 31.4735 27.4974 31.4735 26.302 32.0004C25.494 32.0273 25.494 32.0273 24.2012 31.1662C24.7451 30.0793 25.2786 29.9485 26.3559 29.444C26.4981 29.3019 26.6403 29.1598 26.7868 29.0134Z" fill="#A7A7A7"/>
        <path d="M16.4443 34.1802C16.7287 34.7485 17.0131 35.3168 17.3062 35.9024C16.0263 36.968 16.0263 36.968 14.7206 38.0552C13.8587 37.6246 13.8587 37.6246 13.4277 37.1941C13.4277 36.9099 13.4277 36.6257 13.4277 36.333C14.0876 35.7779 14.0876 35.7779 14.936 35.2027C15.216 35.0107 15.496 34.8187 15.7844 34.6208C16.0022 34.4754 16.22 34.33 16.4443 34.1802Z" fill="#A7A7A7"/>
        <path d="M18.1679 25.9995C18.4524 26.1416 18.7368 26.2837 19.0298 26.4301C19.0298 26.8563 19.0298 27.2826 19.0298 27.7217C17.9525 28.6636 17.9525 28.6636 16.8751 29.444C16.5907 29.3019 16.3063 29.1598 16.0132 29.0134C16.0132 28.8713 16.0132 28.7292 16.0132 28.5828C15.7288 28.4408 15.4444 28.2987 15.1514 28.1523C16.1468 27.4419 17.1423 26.7315 18.1679 25.9995Z" fill="#A8A8A8"/>
        <path d="M17.3061 23.8467C17.5905 24.415 17.875 24.9833 18.168 25.5689C17.3147 26.1372 16.4615 26.7056 15.5824 27.2911C15.4402 27.007 15.2979 26.7228 15.1514 26.43C14.7248 26.6431 14.7248 26.6431 14.2896 26.8606C14.8641 25.1384 15.796 24.7776 17.3061 23.8467Z" fill="#A5A5A5"/>
        <path d="M29.6957 15.5049C30.1757 15.5848 30.1757 15.5848 30.6653 15.6663C30.6115 16.4467 30.6115 16.4467 30.2344 17.3886C28.9685 18.1689 28.9685 18.1689 27.6487 18.6802C27.3643 18.5381 27.0799 18.3961 26.7869 18.2497C28.2189 15.7061 28.2189 15.7061 29.6957 15.5049Z" fill="#898989"/>
        <path d="M14.2895 32.8884C15.1514 32.8884 16.0132 32.8884 16.8751 32.8884C16.8751 33.1726 16.8751 33.4568 16.8751 33.7495C16.121 34.3046 16.121 34.3046 15.1514 34.8797C14.8314 35.0718 14.5114 35.2638 14.1818 35.4617C13.9329 35.6071 13.684 35.7525 13.4276 35.9023C13.3737 34.8797 13.3737 34.8797 13.4276 33.7495C13.712 33.4654 13.9964 33.1812 14.2895 32.8884Z" fill="#9A9A9A"/>
        <path d="M31.0962 18.2495C31.5228 18.2495 31.9494 18.2495 32.389 18.2495C32.5312 19.102 32.6734 19.9545 32.8199 20.8328C32.3933 20.8328 31.9667 20.8328 31.5271 20.8328C30.9497 20.9647 30.3743 21.106 29.8033 21.2634C30.0878 20.8372 30.3722 20.4109 30.6652 19.9717C30.6652 19.5455 30.6652 19.1192 30.6652 18.6801C30.8074 18.538 30.9496 18.3959 31.0962 18.2495Z" fill="#6E6E6E"/>
        <path d="M18.5989 11.7913C18.7411 12.0754 18.8833 12.3596 19.0298 12.6524C18.545 13.4866 18.545 13.4866 17.737 14.3746C16.3634 14.6975 16.3634 14.6975 15.1514 14.8051C16.2623 13.6652 17.2701 12.6763 18.5989 11.7913Z" fill="#858585"/>
        <path d="M33.6818 19.5413C35.5305 19.5413 37.3793 19.5413 39.284 19.5413C39.284 19.6833 39.284 19.8254 39.284 19.9718C38.9568 20.024 38.6296 20.0762 38.2925 20.1299C37.6501 20.2381 37.6501 20.2381 36.9946 20.3486C36.5697 20.4185 36.1447 20.4884 35.7069 20.5605C34.4572 20.7816 34.4572 20.7816 33.2509 21.694C33.3931 20.9836 33.5353 20.2732 33.6818 19.5413Z" fill="#535353"/>
        <path d="M21.1846 26.8606C22.6067 27.2868 24.0288 27.7131 25.494 28.1523C25.494 28.2943 25.494 28.4364 25.494 28.5828C22.2081 29.0134 22.2081 29.0134 20.7537 29.0134C20.8959 28.303 21.0381 27.5925 21.1846 26.8606Z" fill="#2B2B2B"/>
        </svg>