              <svg
                class="m-auto"
                width="40"
                height="40"
                viewBox="0 0 65 65"
                fill="none"
                xmlns="http://www.w3.org/2000/svg"
              >
                <path
                  d="M25.388 17.355C23.0317 17.4457 20.9016 18.2867 19.7628 19.4269C19.6369 19.5526 19.4876 19.6523 19.3232 19.7203C19.1589 19.7883 18.9828 19.8233 18.8049 19.8232C18.627 19.8232 18.4509 19.7881 18.2866 19.7199C18.1223 19.6518 17.973 19.552 17.8473 19.4262C17.7216 19.3004 17.6219 19.151 17.5538 18.9867C17.4858 18.8223 17.4509 18.6462 17.4509 18.4683C17.451 18.2904 17.4861 18.1143 17.5542 17.95C17.6223 17.7857 17.7222 17.6364 17.848 17.5107C19.6043 15.7544 22.4643 14.7577 25.2823 14.648C28.1193 14.5383 31.2163 15.3143 33.3857 17.4836C33.6396 17.7377 33.7822 18.0823 33.782 18.4415C33.7819 18.8007 33.6391 19.1452 33.385 19.3991C33.1309 19.653 32.7863 19.7956 32.4271 19.7955C32.0679 19.7953 31.7235 19.6525 31.4695 19.3984C29.9935 17.921 27.7266 17.2629 25.388 17.3536"
                  fill="black"
                />
                <path
                  fill-rule="evenodd"
                  clip-rule="evenodd"
                  d="M39.1842 37.0825C41.869 33.9094 43.3395 29.8857 43.3333 25.7292C43.3333 16.0063 35.4521 8.125 25.7292 8.125C16.0063 8.125 8.125 16.0063 8.125 25.7292C8.125 35.4521 16.0063 43.3333 25.7292 43.3333C30.0557 43.3333 34.0167 41.7733 37.0825 39.1842L36.5625 42.1742L46.7377 52.3494L52.3494 46.7377L42.1742 36.5625L39.1842 37.0825ZM25.7292 39.2708C33.2082 39.2708 39.2708 33.2082 39.2708 25.7292C39.2708 18.2501 33.2082 12.1875 25.7292 12.1875C18.2501 12.1875 12.1875 18.2501 12.1875 25.7292C12.1875 33.2082 18.2501 39.2708 25.7292 39.2708Z"
                  fill="black"
                />
                <path
                  d="M48.6526 54.2641L54.2643 48.6525L56.1005 50.4887C57.1337 51.5219 57.1337 53.197 56.1005 54.2289L54.229 56.1004C53.1958 57.1336 51.5207 57.1336 50.4888 56.1004L48.6526 54.2641Z"
                  fill="black"
                />
              </svg>