<svg width="201" height="208" viewBox="0 0 201 208" fill="none" xmlns="http://www.w3.org/2000/svg">
<g filter="url(#filter0_i_312_3)">
<path d="M185.422 44.5117C134.398 44.5117 93.0348 87.3198 92.6055 138.275L93.0348 201.746C93.0348 204.931 95.6827 207.449 98.6883 207.227C155.366 204.19 200.379 155.754 200.379 96.3555V44.5117H185.422Z" fill="url(#paint0_radial_312_3)"/>
<path d="M185.422 44.5117C134.398 44.5117 93.0348 87.3198 92.6055 138.275L93.0348 201.746C93.0348 204.931 95.6827 207.449 98.6883 207.227C155.366 204.19 200.379 155.754 200.379 96.3555V44.5117H185.422Z" fill="url(#paint1_radial_312_3)"/>
</g>
<g filter="url(#filter1_f_312_3)">
<path d="M116.793 170.218C117.892 171.017 119.249 171.34 120.575 171.119C121.901 170.898 123.092 170.149 123.892 169.033L187.64 76.5068C188.699 74.9515 189.629 73.332 190.431 71.6483V49.3555H183.633L183.654 56.2729C183.659 61.3164 182.143 66.2359 179.317 70.3448L115.577 162.864C115.188 163.428 114.911 164.067 114.761 164.743C114.612 165.419 114.593 166.119 114.706 166.803C114.819 167.486 115.062 168.14 115.42 168.726C115.778 169.312 116.245 169.819 116.793 170.218Z" fill="#C34749"/>
</g>
<g filter="url(#filter2_f_312_3)">
<path d="M194.79 58.791V100.444C194.718 112.56 190.088 142.2 172.197 163.863" stroke="url(#paint2_linear_312_3)" stroke-width="0.4" stroke-linecap="round"/>
</g>
<path d="M122.089 169.751C121.101 169.747 120.134 169.462 119.292 168.927C118.45 168.392 117.767 167.628 117.316 166.719C116.866 165.809 116.666 164.789 116.737 163.769C116.809 162.75 117.15 161.77 117.723 160.938L187.626 60.0426C189.329 57.7393 189.723 55.7914 189.723 52.5401L189.644 20.4414C189.644 18.9682 190.209 17.5554 191.216 16.5136C192.222 15.4719 193.588 14.8867 195.011 14.8867C196.434 14.8867 197.8 15.4719 198.806 16.5136C199.813 17.5554 200.378 18.9682 200.378 20.4414L200.521 55.6137C200.521 59.3168 198.188 63.5606 196.7 65.6417L126.533 167.455C125.459 168.937 123.813 169.751 122.096 169.751" fill="url(#paint3_linear_312_3)"/>
<g filter="url(#filter3_ii_312_3)">
<path d="M29.5586 63.8419C29.5586 28.8844 56.967 0.370312 89.5995 0.0740624L130.175 0C132.179 0 133.825 1.7775 133.682 3.92531C131.75 42.66 100.692 74.0625 62.692 74.0625H29.5586V63.8419Z" fill="url(#paint4_radial_312_3)"/>
<path d="M29.5586 63.8419C29.5586 28.8844 56.967 0.370312 89.5995 0.0740624L130.175 0C132.179 0 133.825 1.7775 133.682 3.92531C131.75 42.66 100.692 74.0625 62.692 74.0625H29.5586V63.8419Z" fill="url(#paint5_radial_312_3)"/>
</g>
<path d="M109.637 20.4411C109.639 19.7684 109.463 19.108 109.127 18.5317C108.792 17.9554 108.311 17.4852 107.735 17.1722C107.16 16.8592 106.513 16.7154 105.864 16.7563C105.215 16.7973 104.59 17.0215 104.055 17.4045L41.4381 63.6195C38.6472 65.6933 35.3553 66.8042 31.9203 66.8042H17.894C15.8903 66.8042 14.3159 68.4336 14.3159 70.4333C14.3159 72.433 15.8903 74.1364 17.894 74.1364H31.9203C36.8581 74.1364 41.5812 72.5811 45.5887 69.6186L108.134 23.4777C109.136 22.737 109.637 21.6261 109.637 20.4411Z" fill="url(#paint6_linear_312_3)"/>
<path d="M109.637 20.4411C109.639 19.7684 109.463 19.108 109.127 18.5317C108.792 17.9554 108.311 17.4852 107.735 17.1722C107.16 16.8592 106.513 16.7154 105.864 16.7563C105.215 16.7973 104.59 17.0215 104.055 17.4045L41.4381 63.6195C38.6472 65.6933 35.3553 66.8042 31.9203 66.8042H17.894C15.8903 66.8042 14.3159 68.4336 14.3159 70.4333C14.3159 72.433 15.8903 74.1364 17.894 74.1364H31.9203C36.8581 74.1364 41.5812 72.5811 45.5887 69.6186L108.134 23.4777C109.136 22.737 109.637 21.6261 109.637 20.4411Z" fill="url(#paint7_radial_312_3)"/>
<g filter="url(#filter4_i_312_3)">
<path d="M71.5659 155.013C71.5659 131.017 52.7449 111.39 30.3459 111.242L2.4365 111.168C1.00525 111.168 -0.0681836 112.427 0.00337891 113.834C1.36307 140.497 22.6887 163.012 48.809 163.012H71.5659V155.013Z" fill="url(#paint8_radial_312_3)"/>
</g>
<g filter="url(#filter5_i_312_3)">
<path d="M71.5659 155.013C71.5659 131.017 52.7449 111.39 30.3459 111.242L2.4365 111.168C1.00525 111.168 -0.0681836 112.427 0.00337891 113.834C1.36307 140.497 22.6887 163.012 48.809 163.012H71.5659V155.013Z" fill="url(#paint9_radial_312_3)"/>
</g>
<path d="M71.5659 155.013C71.5659 131.017 52.7449 111.39 30.3459 111.242L2.4365 111.168C1.00525 111.168 -0.0681836 112.427 0.00337891 113.834C1.36307 140.497 22.6887 163.012 48.809 163.012H71.5659V155.013Z" fill="url(#paint10_radial_312_3)"/>
<path d="M71.5659 155.013C71.5659 131.017 52.7449 111.39 30.3459 111.242L2.4365 111.168C1.00525 111.168 -0.0681836 112.427 0.00337891 113.834C1.36307 140.497 22.6887 163.012 48.809 163.012H71.5659V155.013Z" fill="url(#paint11_radial_312_3)"/>
<g filter="url(#filter6_f_312_3)">
<path d="M20.356 114.797H31.534C36.4575 115.263 48.3512 118.219 56.5809 126.373C66.8716 136.556 68.4316 149.28 68.4316 157.612" stroke="url(#paint12_linear_312_3)" stroke-width="0.25" stroke-linecap="round"/>
</g>
<g filter="url(#filter7_i_312_3)">
<path d="M77.9777 155.679H73.4692C70.0342 155.679 66.7423 154.569 63.9514 152.495L33.4658 129.98C33.096 129.699 32.6758 129.497 32.2297 129.385C31.7836 129.274 31.3206 129.256 30.8677 129.332C30.4147 129.407 29.9809 129.576 29.5915 129.827C29.202 130.078 28.8648 130.407 28.5995 130.794C28.5995 130.794 28.5995 130.869 28.528 130.869C27.383 132.498 27.7408 134.794 29.3152 135.979L59.8008 158.494C63.8083 161.456 68.5314 163.012 73.4692 163.012H78.0492C80.1245 163.012 81.6989 161.234 81.6274 159.086C81.5382 158.15 81.1147 157.282 80.4397 156.652C79.7647 156.022 78.8867 155.675 77.9777 155.679Z" fill="#D55B3E"/>
</g>
<g filter="url(#filter8_f_312_3)">
<path d="M196.242 20.1377V49.2443C196.243 55.4465 194.364 61.4927 190.868 66.5304L123.785 163.167" stroke="url(#paint13_linear_312_3)" stroke-width="0.4" stroke-linecap="round"/>
</g>
<g filter="url(#filter9_f_312_3)">
<path d="M31.2617 131.394L60.6023 153.391C64.2661 156.136 68.6741 157.613 73.1973 157.612H78.221" stroke="url(#paint14_linear_312_3)" stroke-width="0.25" stroke-linecap="round"/>
</g>
<g filter="url(#filter10_f_312_3)">
<path d="M18.5596 70.4629H30.0525C36.1151 70.4633 42.0212 68.4716 46.9198 64.7749L106.381 19.9004" stroke="url(#paint15_linear_312_3)" stroke-opacity="0.5" stroke-width="0.25" stroke-linecap="round"/>
</g>
<g filter="url(#filter11_f_312_3)">
<path d="M130.176 4.66602C129.846 10.7021 126.526 26.5145 115.877 41.4158" stroke="url(#paint16_linear_312_3)" stroke-width="0.25" stroke-linecap="round"/>
</g>
<defs>
<filter id="filter0_i_312_3" x="92.6055" y="44.5117" width="107.773" height="162.729" filterUnits="userSpaceOnUse" color-interpolation-filters="sRGB">
<feFlood flood-opacity="0" result="BackgroundImageFix"/>
<feBlend mode="normal" in="SourceGraphic" in2="BackgroundImageFix" result="shape"/>
<feColorMatrix in="SourceAlpha" type="matrix" values="0 0 0 0 0 0 0 0 0 0 0 0 0 0 0 0 0 0 127 0" result="hardAlpha"/>
<feOffset/>
<feGaussianBlur stdDeviation="0.5"/>
<feComposite in2="hardAlpha" operator="arithmetic" k2="-1" k3="1"/>
<feColorMatrix type="matrix" values="0 0 0 0 0.670833 0 0 0 0 0.167708 0 0 0 0 0.17557 0 0 0 1 0"/>
<feBlend mode="normal" in2="shape" result="effect1_innerShadow_312_3"/>
</filter>
<filter id="filter1_f_312_3" x="113.633" y="48.3555" width="77.7979" height="123.832" filterUnits="userSpaceOnUse" color-interpolation-filters="sRGB">
<feFlood flood-opacity="0" result="BackgroundImageFix"/>
<feBlend mode="normal" in="SourceGraphic" in2="BackgroundImageFix" result="shape"/>
<feGaussianBlur stdDeviation="0.5" result="effect1_foregroundBlur_312_3"/>
</filter>
<filter id="filter2_f_312_3" x="171.597" y="58.1908" width="23.7927" height="106.273" filterUnits="userSpaceOnUse" color-interpolation-filters="sRGB">
<feFlood flood-opacity="0" result="BackgroundImageFix"/>
<feBlend mode="normal" in="SourceGraphic" in2="BackgroundImageFix" result="shape"/>
<feGaussianBlur stdDeviation="0.2" result="effect1_foregroundBlur_312_3"/>
</filter>
<filter id="filter3_ii_312_3" x="29.3086" y="-0.25" width="104.632" height="74.5625" filterUnits="userSpaceOnUse" color-interpolation-filters="sRGB">
<feFlood flood-opacity="0" result="BackgroundImageFix"/>
<feBlend mode="normal" in="SourceGraphic" in2="BackgroundImageFix" result="shape"/>
<feColorMatrix in="SourceAlpha" type="matrix" values="0 0 0 0 0 0 0 0 0 0 0 0 0 0 0 0 0 0 127 0" result="hardAlpha"/>
<feOffset dx="-0.25" dy="-0.25"/>
<feGaussianBlur stdDeviation="0.25"/>
<feComposite in2="hardAlpha" operator="arithmetic" k2="-1" k3="1"/>
<feColorMatrix type="matrix" values="0 0 0 0 0.819608 0 0 0 0 0.4 0 0 0 0 0.247059 0 0 0 1 0"/>
<feBlend mode="normal" in2="shape" result="effect1_innerShadow_312_3"/>
<feColorMatrix in="SourceAlpha" type="matrix" values="0 0 0 0 0 0 0 0 0 0 0 0 0 0 0 0 0 0 127 0" result="hardAlpha"/>
<feOffset dx="0.25" dy="0.25"/>
<feGaussianBlur stdDeviation="0.25"/>
<feComposite in2="hardAlpha" operator="arithmetic" k2="-1" k3="1"/>
<feColorMatrix type="matrix" values="0 0 0 0 0.847059 0 0 0 0 0.521569 0 0 0 0 0.145098 0 0 0 1 0"/>
<feBlend mode="normal" in2="effect1_innerShadow_312_3" result="effect2_innerShadow_312_3"/>
</filter>
<filter id="filter4_i_312_3" x="0" y="111.168" width="71.5659" height="51.8438" filterUnits="userSpaceOnUse" color-interpolation-filters="sRGB">
<feFlood flood-opacity="0" result="BackgroundImageFix"/>
<feBlend mode="normal" in="SourceGraphic" in2="BackgroundImageFix" result="shape"/>
<feColorMatrix in="SourceAlpha" type="matrix" values="0 0 0 0 0 0 0 0 0 0 0 0 0 0 0 0 0 0 127 0" result="hardAlpha"/>
<feOffset/>
<feGaussianBlur stdDeviation="0.5"/>
<feComposite in2="hardAlpha" operator="arithmetic" k2="-1" k3="1"/>
<feColorMatrix type="matrix" values="0 0 0 0 0.823529 0 0 0 0 0.372549 0 0 0 0 0.258824 0 0 0 1 0"/>
<feBlend mode="normal" in2="shape" result="effect1_innerShadow_312_3"/>
</filter>
<filter id="filter5_i_312_3" x="0" y="111.168" width="71.5659" height="51.8438" filterUnits="userSpaceOnUse" color-interpolation-filters="sRGB">
<feFlood flood-opacity="0" result="BackgroundImageFix"/>
<feBlend mode="normal" in="SourceGraphic" in2="BackgroundImageFix" result="shape"/>
<feColorMatrix in="SourceAlpha" type="matrix" values="0 0 0 0 0 0 0 0 0 0 0 0 0 0 0 0 0 0 127 0" result="hardAlpha"/>
<feOffset/>
<feGaussianBlur stdDeviation="0.5"/>
<feComposite in2="hardAlpha" operator="arithmetic" k2="-1" k3="1"/>
<feColorMatrix type="matrix" values="0 0 0 0 0.823529 0 0 0 0 0.372549 0 0 0 0 0.258824 0 0 0 1 0"/>
<feBlend mode="normal" in2="shape" result="effect1_innerShadow_312_3"/>
</filter>
<filter id="filter6_f_312_3" x="19.831" y="114.272" width="49.1257" height="43.8654" filterUnits="userSpaceOnUse" color-interpolation-filters="sRGB">
<feFlood flood-opacity="0" result="BackgroundImageFix"/>
<feBlend mode="normal" in="SourceGraphic" in2="BackgroundImageFix" result="shape"/>
<feGaussianBlur stdDeviation="0.2" result="effect1_foregroundBlur_312_3"/>
</filter>
<filter id="filter7_i_312_3" x="27.7569" y="129.286" width="53.8729" height="33.8261" filterUnits="userSpaceOnUse" color-interpolation-filters="sRGB">
<feFlood flood-opacity="0" result="BackgroundImageFix"/>
<feBlend mode="normal" in="SourceGraphic" in2="BackgroundImageFix" result="shape"/>
<feColorMatrix in="SourceAlpha" type="matrix" values="0 0 0 0 0 0 0 0 0 0 0 0 0 0 0 0 0 0 127 0" result="hardAlpha"/>
<feOffset dx="-0.1" dy="0.1"/>
<feGaussianBlur stdDeviation="0.175"/>
<feComposite in2="hardAlpha" operator="arithmetic" k2="-1" k3="1"/>
<feColorMatrix type="matrix" values="0 0 0 0 0.886275 0 0 0 0 0.505882 0 0 0 0 0.164706 0 0 0 1 0"/>
<feBlend mode="normal" in2="shape" result="effect1_innerShadow_312_3"/>
</filter>
<filter id="filter8_f_312_3" x="123.185" y="19.5375" width="73.6574" height="144.23" filterUnits="userSpaceOnUse" color-interpolation-filters="sRGB">
<feFlood flood-opacity="0" result="BackgroundImageFix"/>
<feBlend mode="normal" in="SourceGraphic" in2="BackgroundImageFix" result="shape"/>
<feGaussianBlur stdDeviation="0.2" result="effect1_foregroundBlur_312_3"/>
</filter>
<filter id="filter9_f_312_3" x="30.8867" y="131.019" width="47.7095" height="26.9683" filterUnits="userSpaceOnUse" color-interpolation-filters="sRGB">
<feFlood flood-opacity="0" result="BackgroundImageFix"/>
<feBlend mode="normal" in="SourceGraphic" in2="BackgroundImageFix" result="shape"/>
<feGaussianBlur stdDeviation="0.125" result="effect1_foregroundBlur_312_3"/>
</filter>
<filter id="filter10_f_312_3" x="18.1846" y="19.5254" width="88.5713" height="51.3125" filterUnits="userSpaceOnUse" color-interpolation-filters="sRGB">
<feFlood flood-opacity="0" result="BackgroundImageFix"/>
<feBlend mode="normal" in="SourceGraphic" in2="BackgroundImageFix" result="shape"/>
<feGaussianBlur stdDeviation="0.125" result="effect1_foregroundBlur_312_3"/>
</filter>
<filter id="filter11_f_312_3" x="115.502" y="4.29102" width="15.0483" height="37.5" filterUnits="userSpaceOnUse" color-interpolation-filters="sRGB">
<feFlood flood-opacity="0" result="BackgroundImageFix"/>
<feBlend mode="normal" in="SourceGraphic" in2="BackgroundImageFix" result="shape"/>
<feGaussianBlur stdDeviation="0.125" result="effect1_foregroundBlur_312_3"/>
</filter>
<radialGradient id="paint0_radial_312_3" cx="0" cy="0" r="1" gradientUnits="userSpaceOnUse" gradientTransform="translate(164.593 80.546) rotate(113.24) scale(104.28 100.917)">
<stop stop-color="#BB3F4A"/>
<stop offset="0.931" stop-color="#D75A43"/>
</radialGradient>
<radialGradient id="paint1_radial_312_3" cx="0" cy="0" r="1" gradientUnits="userSpaceOnUse" gradientTransform="translate(85.8786 171.27) scale(22.3633 82.3945)">
<stop stop-color="#BE412D"/>
<stop offset="1" stop-color="#BE412D" stop-opacity="0"/>
</radialGradient>
<linearGradient id="paint2_linear_312_3" x1="200.958" y1="62.7015" x2="115.253" y2="93.4565" gradientUnits="userSpaceOnUse">
<stop stop-color="#D35D5C"/>
<stop offset="1" stop-color="#D35D5C" stop-opacity="0"/>
</linearGradient>
<linearGradient id="paint3_linear_312_3" x1="200.521" y1="62.0275" x2="95.7585" y2="201.48" gradientUnits="userSpaceOnUse">
<stop stop-color="#A52344"/>
<stop offset="1" stop-color="#C03C49"/>
</linearGradient>
<radialGradient id="paint4_radial_312_3" cx="0" cy="0" r="1" gradientUnits="userSpaceOnUse" gradientTransform="translate(117.108 26.6107) rotate(150.897) scale(74.5092 82.4865)">
<stop stop-color="#E2773A"/>
<stop offset="1" stop-color="#DC8839"/>
</radialGradient>
<radialGradient id="paint5_radial_312_3" cx="0" cy="0" r="1" gradientUnits="userSpaceOnUse" gradientTransform="translate(110.7 64.8944) rotate(-152.22) scale(32.8541 74.0068)">
<stop stop-color="#DD763B"/>
<stop offset="1" stop-color="#DD763B" stop-opacity="0"/>
</radialGradient>
<linearGradient id="paint6_linear_312_3" x1="20.1339" y1="76.8397" x2="101.315" y2="16.1265" gradientUnits="userSpaceOnUse">
<stop stop-color="#D86443"/>
<stop offset="1" stop-color="#DD7E24"/>
</linearGradient>
<radialGradient id="paint7_radial_312_3" cx="0" cy="0" r="1" gradientUnits="userSpaceOnUse" gradientTransform="translate(109.637 17.9748) rotate(139.545) scale(6.12249 5.9592)">
<stop stop-color="#EA9759"/>
<stop offset="1" stop-color="#EA9759" stop-opacity="0"/>
</radialGradient>
<radialGradient id="paint8_radial_312_3" cx="0" cy="0" r="1" gradientUnits="userSpaceOnUse" gradientTransform="translate(63.9603 137.086) rotate(142.421) scale(35.5526 57.7543)">
<stop stop-color="#E4903B"/>
<stop offset="1" stop-color="#E2783C"/>
</radialGradient>
<radialGradient id="paint9_radial_312_3" cx="0" cy="0" r="1" gradientUnits="userSpaceOnUse" gradientTransform="translate(63.9603 137.086) rotate(142.421) scale(35.5526 57.7543)">
<stop stop-color="#E4903B"/>
<stop offset="1" stop-color="#E2783C"/>
</radialGradient>
<radialGradient id="paint10_radial_312_3" cx="0" cy="0" r="1" gradientUnits="userSpaceOnUse" gradientTransform="translate(66.1987 130.306) rotate(136.346) scale(19.7817 87.1529)">
<stop stop-color="#E38F3C"/>
<stop offset="1" stop-color="#E38F3C" stop-opacity="0"/>
</radialGradient>
<radialGradient id="paint11_radial_312_3" cx="0" cy="0" r="1" gradientUnits="userSpaceOnUse" gradientTransform="translate(35.7846 140.949) rotate(-139.017) scale(23.9975 9.94223)">
<stop stop-color="#DA6A3B"/>
<stop offset="1" stop-color="#DA6A3B" stop-opacity="0"/>
</radialGradient>
<linearGradient id="paint12_linear_312_3" x1="52.6092" y1="120.055" x2="22.4188" y2="115.137" gradientUnits="userSpaceOnUse">
<stop stop-color="#EFA55A"/>
<stop offset="1" stop-color="#EFA55A" stop-opacity="0"/>
</linearGradient>
<linearGradient id="paint13_linear_312_3" x1="216.036" y1="25.4628" x2="35.1054" y2="178.486" gradientUnits="userSpaceOnUse">
<stop stop-color="#C16073"/>
<stop offset="1" stop-color="#C16073" stop-opacity="0"/>
</linearGradient>
<linearGradient id="paint14_linear_312_3" x1="39.7133" y1="132.675" x2="91.5807" y2="173.318" gradientUnits="userSpaceOnUse">
<stop stop-color="#E6894F"/>
<stop offset="1" stop-color="#E6894F" stop-opacity="0"/>
</linearGradient>
<linearGradient id="paint15_linear_312_3" x1="104.399" y1="25.1959" x2="27.6558" y2="64.1452" gradientUnits="userSpaceOnUse">
<stop stop-color="#F18546"/>
<stop offset="1" stop-color="#F18546" stop-opacity="0"/>
</linearGradient>
<linearGradient id="paint16_linear_312_3" x1="131.9" y1="3.51805" x2="121.185" y2="5.13171" gradientUnits="userSpaceOnUse">
<stop stop-color="#F89D66"/>
<stop offset="1" stop-color="#F89D66" stop-opacity="0"/>
</linearGradient>
</defs>
</svg>
