<svg width="67" height="44" viewBox="0 0 67 44" fill="none" xmlns="http://www.w3.org/2000/svg">
<path d="M0 23.625V52.3125C0 53.2449 0.749562 54 1.675 54H10.05V20.25H3.35C1.50017 20.25 0 21.7614 0 23.625ZM37.6875 18.5625H35.175V14.3438C35.175 13.8776 34.8002 13.5 34.3375 13.5H32.6625C32.1998 13.5 31.825 13.8776 31.825 14.3438V21.0938C31.825 21.5599 32.1998 21.9375 32.6625 21.9375H37.6875C38.1502 21.9375 38.525 21.5599 38.525 21.0938V19.4063C38.525 18.9401 38.1502 18.5625 37.6875 18.5625ZM52.1082 11.8167L35.3582 0.566376C34.8078 0.197058 34.1613 0 33.5 0C32.8387 0 32.1922 0.197058 31.6418 0.566376L14.8918 11.8167C14.433 12.1249 14.0568 12.5423 13.7965 13.0321C13.5363 13.5219 13.4001 14.0688 13.4 14.6243V54H26.8V38.8125C26.8 37.8802 27.5496 37.125 28.475 37.125H38.525C39.4504 37.125 40.2 37.8802 40.2 38.8125V54H53.6V14.6254C53.6 13.4968 53.0399 12.4422 52.1082 11.8167ZM33.5 27C28.8749 27 25.125 23.2221 25.125 18.5625C25.125 13.9029 28.8749 10.125 33.5 10.125C38.1251 10.125 41.875 13.9029 41.875 18.5625C41.875 23.2221 38.1251 27 33.5 27ZM63.65 20.25H56.95V54H65.325C66.2504 54 67 53.2449 67 52.3125V23.625C67 21.7614 65.4998 20.25 63.65 20.25Z" fill="black"/>
</svg>
